<?xml version="1.0" encoding="UTF-8" standalone="no"?>
<!-- Created with Inkscape (http://www.inkscape.org/) -->
<svg
   xmlns:dc="http://purl.org/dc/elements/1.1/"
   xmlns:cc="http://web.resource.org/cc/"
   xmlns:rdf="http://www.w3.org/1999/02/22-rdf-syntax-ns#"
   xmlns:svg="http://www.w3.org/2000/svg"
   xmlns="http://www.w3.org/2000/svg"
   xmlns:sodipodi="http://inkscape.sourceforge.net/DTD/sodipodi-0.dtd"
   xmlns:inkscape="http://www.inkscape.org/namespaces/inkscape"
   width="744.09448819"
   height="1052.3622047"
   id="svg2"
   sodipodi:version="0.32"
   inkscape:version="0.42+0.43pre1"
   sodipodi:docbase="c:\users\proj\keyboardhero\data"
   sodipodi:docname="cassette.svg">
  <defs
     id="defs4" />
  <sodipodi:namedview
     id="base"
     pagecolor="#ffffff"
     bordercolor="#666666"
     borderopacity="1.0"
     inkscape:pageopacity="0.0"
     inkscape:pageshadow="2"
     inkscape:zoom="1.2444656"
     inkscape:cx="372.04724"
     inkscape:cy="801.11941"
     inkscape:document-units="px"
     inkscape:current-layer="layer1"
     inkscape:window-width="1017"
     inkscape:window-height="708"
     inkscape:window-x="156"
     inkscape:window-y="141" />
  <metadata
     id="metadata7">
    <rdf:RDF>
      <cc:Work
         rdf:about="">
        <dc:format>image/svg+xml</dc:format>
        <dc:type
           rdf:resource="http://purl.org/dc/dcmitype/StillImage" />
      </cc:Work>
    </rdf:RDF>
  </metadata>
  <g
     inkscape:label="Layer 1"
     inkscape:groupmode="layer"
     id="layer1">
    <path
       style="fill:#000002;fill-opacity:0.23529412"
       d="M -169.469,116.70331 C -173.16019,114.00249 -173.24943,110.95843 -172.6646,7.710149 C -172.26022,-63.683532 -171.38005,-99.327486 -169.97984,-101.01465 C -167.27632,-104.27218 166.06751,-104.74478 172.13105,-101.49967 C 177.12553,-98.82668 177.04766,-90.575228 172.00245,-87.87511 C 167.73585,-85.591681 161.3931,-87.833345 159.6121,-92.254134 C 158.85634,-94.130068 158.58091,-94.146265 158.46352,-92.321642 C 158.26923,-89.302096 166.73725,-83.621263 170.30772,-84.375905 C 171.77778,-84.686607 173.62729,-85.821103 174.41775,-86.897012 C 175.20821,-87.97292 176.0885,-58.923401 176.37394,-22.342526 C 177.28072,93.861434 177.02592,108.85996 174.05069,114.41926 L 171.34133,119.48172 L 2.8347835,119.48172 C -139.66044,119.48172 -166.25792,119.05284 -169.469,116.70331 z M -77.226745,113.12408 L -73.500211,108.72264 L -77.756112,112.31744 C -83.174326,116.89404 -88.372273,115.89908 -91.517054,109.68341 C -93.390973,105.9796 -93.989511,105.65153 -94.01144,108.31616 C -94.085932,117.37267 -83.412434,120.43006 -77.226745,113.12408 z M -7.6008402,116.18923 C -9.0129598,115.62414 -10.700179,115.69362 -11.350223,116.34365 C -12.000248,116.99369 -10.84486,117.45602 -8.7827155,117.37108 C -6.5038443,117.27722 -6.0403236,116.81368 -7.6008402,116.18923 z M 19.908173,116.22997 C 18.563287,115.68731 16.362567,115.68731 15.017682,116.22997 C 13.672797,116.77264 14.773157,117.21666 17.462928,117.21666 C 20.152697,117.21666 21.253058,116.77264 19.908173,116.22997 z M 59.437603,115.7045 C 60.056621,114.70293 59.5324,113.24648 58.272707,112.46795 C 56.883788,111.60955 56.505166,111.89837 57.310708,113.20174 C 58.185167,114.61666 55.447764,115.60205 49.299106,116.08568 L 39.959187,116.82031 L 49.135665,117.17292 C 54.182731,117.36686 58.818603,116.70605 59.437603,115.7045 z M 95.151745,115.08028 C 95.202919,113.73539 95.817009,110.87446 96.516388,108.72264 C 97.452643,105.84206 97.172301,105.98224 95.453391,109.25422 C 91.941744,115.93866 84.132784,117.17088 79.731166,111.73512 C 75.785596,106.86255 75.020097,107.8489 78.173838,113.74173 C 80.53436,118.15241 94.991513,119.2922 95.151745,115.08028 z M 117.87377,97.086439 C 115.41276,86.271822 113.3806,74.562558 113.35787,71.065856 L 113.31656,64.708218 L 2.0792417,64.708218 L -109.15805,64.708218 L -110.40844,73.830744 C -111.96306,85.173026 -110.56957,87.441686 -108.73131,76.561145 L -107.38433,68.58847 L 0.98512142,68.654257 L 109.35457,68.720044 L 110.65282,73.892619 C 111.36685,76.737535 112.03822,82.216978 112.14475,86.06914 C 112.25129,89.921302 112.88811,93.513211 113.55991,94.051165 C 114.23168,94.589119 115.70959,99.417443 116.84413,104.78079 C 118.37751,112.02975 118.32141,114.89417 116.62544,115.94231 C 115.28226,116.77245 115.98993,117.22836 118.34617,117.05085 L 122.34835,116.74938 L 117.87377,97.086439 z M 164.17766,116.78694 C 164.17766,116.38074 162.63716,114.84023 160.75432,113.3636 C 157.65168,110.93034 157.58249,110.99953 160.01574,114.10218 C 162.57126,117.36071 164.17766,118.39697 164.17766,116.78694 z M -39.017239,112.14598 C -36.583985,109.04334 -36.653176,108.97415 -39.755821,111.4074 C -43.014355,113.96292 -44.050611,115.56933 -42.440583,115.56933 C -42.034379,115.56933 -40.493874,114.02882 -39.017239,112.14598 z M 52.269786,110.8232 C 51.954408,110.63048 49.275573,108.95836 46.316825,107.10739 C 43.060815,105.07044 40.937285,104.60424 40.937285,105.92639 C 40.937285,107.12783 42.687963,108.56863 44.827671,109.12818 C 46.967398,109.68773 48.242094,110.91567 47.660361,111.85694 C 47.078647,112.7982 48.006784,113.0295 49.722935,112.37097 C 51.439087,111.71241 52.585164,111.01593 52.269786,110.8232 z M -116.33276,106.31814 C -116.98278,105.66812 -117.44513,106.8235 -117.36019,108.88565 C -117.26633,111.16452 -116.80279,111.62804 -116.17833,110.06752 C -115.61325,108.6554 -115.68273,106.96819 -116.33276,106.31814 z M -41.614208,109.3095 C -37.000753,104.69604 -39.389562,92.053282 -44.855606,92.154457 C -47.706664,92.207215 -47.683014,92.439142 -44.646312,94.207857 C -42.618049,95.389204 -41.222968,98.538543 -41.222968,101.93589 C -41.222968,109.3253 -49.086252,112.0426 -54.995159,106.6951 C -59.547756,102.57508 -60.183207,104.15441 -55.754711,108.58291 C -52.106307,112.23131 -44.905997,112.60129 -41.614208,109.3095 z M 33.112499,107.62909 C 33.112499,106.48968 32.232211,106.10149 31.156302,106.76644 C 30.080394,107.43139 29.200106,108.36364 29.200106,108.83809 C 29.200106,109.31255 30.080394,109.70074 31.156302,109.70074 C 32.232211,109.70074 33.112499,108.76849 33.112499,107.62909 z M 166.92152,107.4364 C 165.96256,105.88477 166.85065,105.51948 169.74306,106.27587 C 172.0646,106.88295 173.47073,106.58148 172.86779,105.60591 C 171.49192,103.37968 164.17766,103.25883 164.17766,105.46231 C 164.17766,107.15058 166.20878,109.70074 167.55343,109.70074 C 167.97558,109.70074 167.69121,108.68177 166.92152,107.4364 z M -159.87511,105.2993 C -160.37382,104.49236 -161.99838,103.83215 -163.48525,103.83215 C -164.97212,103.83215 -166.59668,104.49236 -167.09539,105.2993 C -167.5941,106.10623 -165.96954,106.76644 -163.48525,106.76644 C -161.00096,106.76644 -159.3764,106.10623 -159.87511,105.2993 z M 162.28596,102.85405 C 164.94054,99.235066 164.89903,99.143008 161.73242,101.62642 C 159.84958,103.10305 158.30908,105.23042 158.30908,106.3539 C 158.30908,107.47738 158.55818,108.02981 158.86262,107.58153 C 159.16706,107.13323 160.70757,105.00587 162.28596,102.85405 z M 87.146598,98.487975 C 89.705088,98.977064 91.798394,98.619001 91.798394,97.692292 C 91.798394,95.367509 84.522321,95.57606 79.932615,98.032377 C 77.851535,99.146138 76.148822,101.54273 76.148822,103.35814 C 76.148822,105.94971 76.830537,105.68559 79.321812,102.12879 C 81.56688,98.923503 83.85518,97.858784 87.146598,98.487975 z M -114.26289,97.474509 C -114.80555,96.129624 -115.24955,97.229985 -115.24955,99.919755 C -115.24955,102.60952 -114.80555,103.70989 -114.26289,102.365 C -113.72022,101.02012 -113.72022,98.819394 -114.26289,97.474509 z M -75.669046,101.04911 C -76.256433,99.518421 -78.160086,97.719973 -79.899418,97.052518 C -82.497482,96.055562 -82.416378,96.552221 -79.444994,99.83558 C -75.183987,104.54391 -74.207552,104.85772 -75.669046,101.04911 z M -54.666811,94.540214 C -52.233557,91.437569 -52.302748,91.368379 -55.405393,93.801633 C -58.663927,96.357149 -59.700183,97.963558 -58.090155,97.963558 C -57.683951,97.963558 -56.143446,96.423054 -54.666811,94.540214 z M 57.704686,94.079119 C 57.704686,91.781762 56.986488,90.912859 55.946887,91.95246 C 54.980096,92.919251 54.780525,94.66725 55.503418,95.836918 C 57.34277,98.813037 57.704686,98.524048 57.704686,94.079119 z M 8.3631122,91.134339 C 10.105457,89.391994 11.55359,89.038392 11.959501,90.256164 C 12.333252,91.377436 12.656533,87.472281 12.677875,81.578046 C 12.699217,75.68381 12.062456,71.265584 11.26286,71.759778 C 10.463246,72.253952 10.359978,74.170614 11.033379,76.018985 C 12.082624,78.899034 11.580801,78.820141 7.5246081,75.467298 L 2.7914537,71.554905 L 6.2147976,75.621329 C 10.662836,80.904938 10.582945,87.539281 6.0420068,89.969522 C 0.18904725,93.101921 -5.8366835,90.307201 -7.7946211,83.552083 C -8.9899941,79.427931 -9.6286726,78.720688 -9.7473942,81.389664 C -10.194718,91.445688 1.6685382,97.828913 8.3631122,91.134339 z M 82.506461,92.755615 C 81.161576,92.212947 78.960855,92.212947 77.615969,92.755615 C 76.271084,93.298284 77.371445,93.742301 80.061215,93.742301 C 82.750985,93.742301 83.851346,93.298284 82.506461,92.755615 z M -112.42036,86.756176 C -113.07039,86.106151 -113.53274,87.26154 -113.4478,89.323684 C -113.35394,91.602555 -112.8904,92.066076 -112.26594,90.505559 C -111.70086,89.09344 -111.77034,87.4062 -112.42036,86.756176 z M 38.00299,90.138772 C 37.33804,89.062864 36.405795,88.182576 35.931339,88.182576 C 35.456883,88.182576 35.068695,89.062864 35.068695,90.138772 C 35.068695,91.21468 36.00094,92.094969 37.140347,92.094969 C 38.279753,92.094969 38.667941,91.21468 38.00299,90.138772 z M 55.608759,88.182576 C 57.556133,86.03076 58.709291,84.270183 58.171337,84.270183 C 57.633383,84.270183 55.599936,86.03076 53.652562,88.182576 C 51.705188,90.334392 50.55203,92.094969 51.089984,92.094969 C 51.627938,92.094969 53.661385,90.334392 55.608759,88.182576 z M -38.288673,88.182576 C -38.953624,87.106668 -39.885869,86.226379 -40.360325,86.226379 C -40.834781,86.226379 -41.222968,87.106668 -41.222968,88.182576 C -41.222968,89.258484 -40.290723,90.138772 -39.151317,90.138772 C -38.011911,90.138772 -37.623723,89.258484 -38.288673,88.182576 z M -47.091558,87.413771 C -47.091558,86.99092 -48.457707,86.120725 -50.127457,85.479973 C -51.868316,84.811951 -52.653533,85.139888 -51.968199,86.248778 C -50.819403,88.107575 -47.091558,88.998114 -47.091558,87.413771 z M 1.8133555,72.716143 C 1.8133555,71.740959 0.052778583,71.403496 -2.0990376,71.966196 C -4.2508537,72.528915 -6.0114306,73.326789 -6.0114306,73.739253 C -6.0114306,74.151717 -4.2508537,74.4892 -2.0990376,74.4892 C 0.052778583,74.4892 1.8133555,73.691326 1.8133555,72.716143 z M -96.48552,55.429371 C -104.82381,55.062682 -118.46828,55.062682 -126.80657,55.429371 C -135.14485,55.79606 -128.32262,56.096082 -111.64604,56.096082 C -94.969467,56.096082 -88.147232,55.79606 -96.48552,55.429371 z M -56.356593,55.506406 C -58.762598,55.042083 -63.16404,55.030053 -66.137576,55.479704 C -69.111112,55.929336 -67.142572,56.309249 -61.763032,56.32394 C -56.383491,56.338611 -53.950589,55.970729 -56.356593,55.506406 z M 24.821473,55.539368 C 22.951173,55.049752 19.430019,55.031989 16.996688,55.499892 C 14.563355,55.967795 16.09359,56.368404 20.397222,56.390118 C 24.700854,56.411832 26.691773,56.028985 24.821473,55.539368 z M 158.98754,55.416284 C 159.48768,54.609353 141.27366,54.173826 118.5119,54.448417 C 39.879452,55.397094 32.366386,56.043695 95.106283,56.462791 C 129.74082,56.69415 158.48738,56.223215 158.98754,55.416284 z M 152.65197,50.901657 C 156.05233,49.081846 156.35288,46.305416 156.35288,16.712584 L 156.35288,-15.495838 L 147.06095,-15.68823 C 141.95038,-15.794061 130.94674,-16.014133 122.60841,-16.17728 L 107.44781,-16.473937 L 107.41794,2.1099301 C 107.40151,12.331056 106.55369,22.014229 105.53389,23.628091 C 103.93487,26.158607 90.057164,26.654112 4.6823524,27.229018 C -49.766187,27.595668 -96.453907,27.358832 -99.068129,26.702704 C -103.72329,25.534346 -103.82126,25.08714 -103.82126,5.0069593 L -103.82126,-15.495838 L -129.25181,-15.495838 L -154.68237,-15.495838 L -154.65242,15.314256 C -154.63593,32.259808 -153.94768,47.186018 -153.12296,48.483583 C -151.01291,51.803463 -136.87014,52.143978 15.229166,52.53688 C 102.40485,52.762078 150.23928,52.192903 152.65197,50.901657 z M -74.08707,46.71121 C -77.520214,43.278065 -76.958746,38.402265 -72.684848,34.534434 C -69.672404,31.80822 -68.123194,31.575609 -64.805269,33.351307 C -62.533812,34.566946 -61.218524,36.440435 -61.882399,37.514602 C -62.653512,38.762303 -64.140104,38.595674 -65.998666,37.053194 C -68.330844,35.117655 -69.260409,35.195824 -70.685048,37.44725 C -71.662481,38.991941 -72.475672,40.864021 -72.492163,41.607454 C -72.552062,44.310487 -68.375034,45.430547 -65.898803,43.375445 C -62.549794,40.596022 -60.204588,43.067989 -62.997626,46.43341 C -65.701305,49.691143 -70.975035,49.823264 -74.08707,46.71121 z M -56.481301,46.71121 C -57.772391,45.42012 -58.828737,42.515168 -58.828737,40.255761 C -58.828737,30.037588 -47.793324,29.667261 -47.503083,39.875711 C -47.274286,47.922702 -51.813738,51.378792 -56.481301,46.71121 z M -51.003951,43.190056 C -51.003951,42.114148 -51.884239,41.23386 -52.960147,41.23386 C -54.036055,41.23386 -54.916344,42.114148 -54.916344,43.190056 C -54.916344,44.265964 -54.036055,45.146253 -52.960147,45.146253 C -51.884239,45.146253 -51.003951,44.265964 -51.003951,43.190056 z M -41.16307,47.13948 C -42.444222,46.34767 -43.201896,43.154473 -42.846768,40.043494 C -42.326557,35.486398 -41.250668,34.387172 -37.310575,34.387172 C -33.266178,34.387172 -32.317325,35.442872 -31.826163,40.489233 C -31.369802,45.177904 -32.11257,46.8215 -35.032956,47.585199 C -37.123348,48.131858 -39.881898,47.93127 -41.16307,47.13948 z M -35.354379,40.255761 C -35.354379,37.565991 -36.234667,35.36527 -37.310575,35.36527 C -38.386483,35.36527 -39.266772,37.565991 -39.266772,40.255761 C -39.266772,42.945532 -38.386483,45.146253 -37.310575,45.146253 C -36.234667,45.146253 -35.354379,42.945532 -35.354379,40.255761 z M -103.82126,39.277663 C -103.82126,31.654326 -103.64676,31.452877 -97.043388,31.452877 C -88.891076,31.452877 -84.792277,36.875571 -88.171684,43.190056 C -89.647048,45.946787 -92.267608,47.102449 -97.043388,47.102449 C -103.64676,47.102449 -103.82126,46.901 -103.82126,39.277663 z M -92.429698,39.928822 C -93.381486,35.021175 -97.952667,34.347305 -97.952667,39.114653 C -97.952667,41.517508 -96.68957,43.190056 -94.874944,43.190056 C -93.053255,43.190056 -92.055321,41.859119 -92.429698,39.928822 z M -18.726708,45.033634 C -27.576346,43.921732 -27.033071,43.775448 -13.021128,43.497375 C -4.5035356,43.328359 2.0788113,43.576679 1.6062725,44.049198 C -0.13425336,45.789724 -9.2111812,46.229183 -18.726708,45.033634 z M 30.343112,43.892526 C 28.697579,39.604289 34.239972,31.452877 38.801197,31.452877 C 43.864557,31.452877 48.90055,39.516554 46.507613,43.792486 C 44.02696,48.225169 32.034185,48.299368 30.343112,43.892526 z M 54.386136,46.287361 C 54.251647,45.659754 53.921539,44.265964 53.652562,43.190056 C 53.383585,42.114148 53.053477,40.353571 52.918989,39.277663 C 52.7845,38.201755 51.354031,37.321467 49.740169,37.321467 C 48.126307,37.321467 46.805875,36.001034 46.805875,34.387172 C 46.805875,32.001199 50.022722,31.452877 64.020404,31.452877 C 74.801218,31.452877 82.112248,32.330212 83.582369,33.800313 C 85.408146,35.62609 85.929805,35.62609 85.929805,33.800313 C 85.929805,32.509223 87.250237,31.452877 88.864099,31.452877 C 90.477961,31.452877 91.798394,32.909735 91.798394,34.690363 C 91.798394,37.702866 92.046988,37.702866 95.375769,34.690363 C 97.343331,32.909735 100.56077,31.452877 102.52565,31.452877 C 105.9772,31.452877 105.97642,31.587385 102.50237,35.426166 C 99.132214,39.150139 99.1132,39.60605 102.19918,42.692028 C 104.27805,44.770898 105.49177,45.109007 105.49177,43.609249 C 105.49177,42.302784 106.8122,41.23386 108.42606,41.23386 C 110.03993,41.23386 111.36036,42.420332 111.36036,43.87046 C 111.36036,47.646487 99.453793,47.555524 95.245799,43.747357 C 92.085329,40.887163 91.798394,40.896944 91.798394,43.864963 C 91.798394,45.645591 90.477961,47.102449 88.864099,47.102449 C 87.250237,47.102449 85.929805,46.046103 85.929805,44.755013 C 85.929805,42.929236 85.408146,42.929236 83.582369,44.755013 C 82.291279,46.046103 77.889837,47.102449 73.801386,47.102449 C 67.176394,47.102449 66.36784,46.570501 66.36784,42.211958 C 66.36784,36.13294 61.027364,35.581625 60.146254,41.56968 C 59.586508,45.3737 54.996,49.133431 54.386136,46.287361 z M 79.573085,39.766712 C 80.050632,38.332468 78.702265,37.321467 76.311832,37.321467 C 73.908977,37.321467 72.236429,38.584563 72.236429,40.39919 C 72.236429,43.994444 78.340623,43.468208 79.573085,39.766712 z M -84.259291,39.277663 C -84.259291,38.201755 -83.43096,37.321467 -82.41855,37.321467 C -81.40614,37.321467 -80.03375,38.201755 -79.3688,39.277663 C -78.70385,40.353571 -79.532182,41.23386 -81.209542,41.23386 C -82.886902,41.23386 -84.259291,40.353571 -84.259291,39.277663 z M -19.704395,38.971753 C -19.70461,38.265547 -21.603041,38.184149 -23.92309,38.790844 C -26.927769,39.576589 -27.715999,39.205675 -26.662841,37.501613 C -25.665494,35.887868 -20.824592,35.310105 -11.78847,35.726325 C -2.860311,36.137576 0.95589584,36.995779 -0.34599207,38.299565 C -2.4872643,40.443987 -19.70373,41.0418 -19.704395,38.971753 z M 111.81179,9.9347161 C 111.81179,4.5551757 112.4927,0.15373357 113.32491,0.15373357 C 114.15713,0.15373357 114.71578,1.6942383 114.56635,3.5770775 C 114.39587,5.7250595 115.57002,6.8992077 117.718,6.7287252 C 122.41972,6.3555807 122.04557,9.2419487 117.22895,10.501524 C 111.92674,11.888076 112.26363,17.284596 117.718,18.335151 C 121.65324,19.093099 121.57356,19.211117 116.96561,19.449303 C 112.04964,19.703413 111.81179,19.264306 111.81179,9.9347161 z M 123.79189,16.747385 C 123.21931,15.255277 123.31335,13.124313 124.00085,12.011903 C 125.96053,8.8410849 133.42718,10.85988 135.05023,14.999387 C 136.38252,18.397339 136.52845,18.33699 136.65341,14.336158 C 136.75672,11.029169 137.96144,9.9347161 141.49827,9.9347161 C 145.25465,9.9347161 145.99732,10.73124 145.17453,13.877586 C 143.66135,19.664035 140.72279,20.65657 140.5793,15.429711 C 140.45847,11.027897 140.41309,11.017236 138.79811,15.011593 C 136.84354,19.845863 125.48508,21.159723 123.79189,16.747385 z M 128.96613,15.803305 C 128.96613,14.727397 128.03388,13.847109 126.89448,13.847109 C 125.75507,13.847109 125.36688,14.727397 126.03183,15.803305 C 126.69678,16.879213 127.62903,17.759502 128.10348,17.759502 C 128.57794,17.759502 128.96613,16.879213 128.96613,15.803305 z M 123.09754,4.0661266 C 123.09754,1.135842 124.2837,0.29573388 127.98803,0.60230899 C 130.94711,0.84720523 132.87852,2.215193 132.87852,4.0661266 C 132.87852,5.9170797 130.94711,7.2850479 127.98803,7.5299442 C 124.2837,7.8365193 123.09754,6.9964111 123.09754,4.0661266 z M -146.85758,-4.7367577 C -146.85758,-6.5299443 -145.75722,-7.6303048 -144.41233,-7.1820032 C -141.64301,-6.2588937 -141.94743,-3.1131537 -144.90138,-2.1285022 C -145.97729,-1.7698531 -146.85758,-2.943571 -146.85758,-4.7367577 z M -140.63328,-3.6417767 C -140.24722,-7.5705234 -141.37773,-9.627249 -143.92328,-9.627249 C -145.53715,-9.627249 -146.85758,-10.378585 -146.85758,-11.296863 C -146.85758,-12.21516 -142.01599,-12.949888 -136.0985,-12.929583 C -130.181,-12.909297 -125.33942,-12.157961 -125.33942,-11.259969 C -125.33942,-10.361977 -128.47238,-9.627249 -132.30156,-9.627249 C -136.23287,-9.627249 -138.76037,-8.8128451 -138.10749,-7.7564795 C -137.47159,-6.7275592 -135.65243,-6.3841489 -134.06493,-6.9933281 C -130.44004,-8.3843403 -117.51463,-6.0615526 -117.51463,-4.019127 C -117.51463,-3.1839876 -122.74053,-2.511056 -129.12777,-2.5237321 C -135.51498,-2.5364083 -140.69247,-3.0395225 -140.63328,-3.6417767 z M 114.7837,-3.3290004 C 106.83452,-4.9928238 112.28546,-6.9770134 123.58659,-6.5333089 C 130.31101,-6.2692811 137.94018,-5.9771231 140.5403,-5.8840669 C 143.1404,-5.790991 144.70001,-5.147109 144.00609,-4.4531679 C 142.61126,-3.0583607 120.1964,-2.1960692 114.7837,-3.3290004 z M -123.38322,-10.802532 C -123.38322,-12.179401 -120.55507,-13.148403 -116.53653,-13.148403 C -112.77086,-13.148403 -109.68985,-12.452447 -109.68985,-11.601853 C -109.68985,-10.75124 -112.77086,-9.6955985 -116.53653,-9.2559823 C -120.99942,-8.7349494 -123.38322,-9.2734121 -123.38322,-10.802532 z M 111.36036,-11.486105 C 111.36036,-12.508472 115.32023,-13.168688 120.16007,-12.953253 C 131.61724,-12.443253 131.61992,-9.627249 120.16324,-9.627249 C 115.32166,-9.627249 111.36036,-10.463738 111.36036,-11.486105 z M 44.849678,20.753284 C 44.849678,20.358602 44.315362,18.643252 43.662286,16.941401 C 42.631977,14.256443 37.068339,13.847109 1.604062,13.847109 C -20.874905,13.847109 -39.266772,14.215265 -39.266772,14.665209 C -39.266772,15.115174 -39.786338,16.837292 -40.421358,18.492136 C -41.389343,21.014671 -39.097111,21.593823 -26.238933,22.075477 C -7.9782688,22.75952 44.849678,21.776942 44.849678,20.753284 z M -74.478309,19.715698 C -76.092171,18.672732 -78.292892,17.81942 -79.3688,17.81942 C -80.444708,17.81942 -80.004564,18.672732 -78.390702,19.715698 C -76.77684,20.758664 -74.576119,21.611976 -73.500211,21.611976 C -72.424303,21.611976 -72.864447,20.758664 -74.478309,19.715698 z M -58.579204,16.292354 C -56.14595,13.189709 -56.215141,13.120518 -59.317786,15.553773 C -62.57632,18.109289 -63.612576,19.715698 -62.002548,19.715698 C -61.596344,19.715698 -60.055839,18.175193 -58.579204,16.292354 z M -63.417035,12.868815 C -57.454372,10.377462 -56.76714,9.4844975 -58.866061,6.9554484 C -60.911343,4.4910516 -60.828146,4.1723285 -58.384406,5.1100704 C -55.081975,6.3773532 -52.080289,-1.02777 -55.131897,-2.9137782 C -56.124354,-3.5271436 -56.531419,-4.6842143 -56.036481,-5.4850224 C -55.06791,-7.0522292 -67.671469,-6.4934808 -72.162485,-4.7701108 C -73.753382,-4.159621 -74.373926,-2.3958165 -73.656002,-0.52496881 C -72.968243,1.2672984 -73.879458,4.2798019 -75.726753,6.3210539 C -78.839062,9.7601256 -79.23392,9.7779856 -82.7048,6.6368818 C -86.171845,3.4992404 -86.309268,3.5017443 -85.089619,6.6801137 C -83.897219,9.7874341 -75.550813,15.541683 -71.97023,15.724979 C -71.128753,15.768054 -67.279799,14.482794 -63.417035,12.868815 z M -76.434505,10.050171 C -76.434505,6.8112767 -73.580023,6.3466213 -70.977832,9.1619402 C -68.882491,11.428898 -69.130889,11.890913 -72.44498,11.890913 C -74.639226,11.890913 -76.434505,11.062581 -76.434505,10.050171 z M 82.563386,10.912814 C 82.325708,8.7609982 82.619138,8.1007819 83.215445,9.445667 C 84.811251,13.044755 89.441295,12.4202 90.466322,8.4675687 C 90.954608,6.5847296 91.159226,2.451795 90.92102,-0.71673475 C 90.350594,-8.3044884 82.860278,-11.085144 71.865143,-7.7909281 C 65.274756,-5.816402 64.495662,-5.0363883 66.591472,-2.5111147 C 68.58421,-0.10998128 68.517954,0.78893014 66.242056,2.2290624 C 64.697365,3.2064956 62.636903,4.019706 61.663207,4.0361772 C 60.689529,4.0526484 61.483373,5.8235931 63.427285,7.9716142 C 66.326525,11.175238 67.501495,11.438894 69.965324,9.4387616 C 72.476807,7.3999354 72.766676,7.540625 71.734489,10.297375 C 70.3701,13.941339 73.102574,15.762812 79.083117,15.196004 C 81.738634,14.944339 82.856679,13.568331 82.563386,10.912814 z M 103.53557,-29.189215 C 103.53557,-30.265123 99.794347,-31.020488 95.221738,-30.867807 L 86.907903,-30.590223 L 94.732689,-29.189215 C 99.036321,-28.418669 102.77755,-27.663284 103.04652,-27.510602 C 103.3155,-27.357941 103.53557,-28.113307 103.53557,-29.189215 z M -86.741763,-30.544839 C -88.645084,-31.040813 -91.285949,-31.008203 -92.610353,-30.472362 C -93.934757,-29.936501 -92.377507,-29.530708 -89.149783,-29.570575 C -85.922058,-29.610442 -84.838443,-30.048865 -86.741763,-30.544839 z M -22.150052,-30.627097 C -27.260616,-31.030074 -35.623356,-31.030074 -40.733919,-30.627097 C -45.844482,-30.224121 -41.663112,-29.894423 -31.441986,-29.894423 C -21.220858,-29.894423 -17.039488,-30.224121 -22.150052,-30.627097 z M 3.2805028,-30.53768 C 1.3976637,-31.029702 -1.6833458,-31.029702 -3.566185,-30.53768 C -5.4490241,-30.045637 -3.9085193,-29.643052 -0.14284107,-29.643052 C 3.6228372,-29.643052 5.163342,-30.045637 3.2805028,-30.53768 z M 24.761437,-30.544839 C 22.858117,-31.040813 20.217252,-31.008203 18.892848,-30.472362 C 17.568445,-29.936501 19.125694,-29.530708 22.353418,-29.570575 C 25.581142,-29.610442 26.664758,-30.048865 24.761437,-30.544839 z M 51.207317,-30.484764 C 49.862432,-31.027433 47.66171,-31.027433 46.316825,-30.484764 C 44.97194,-29.942096 46.072301,-29.498078 48.762071,-29.498078 C 51.451841,-29.498078 52.552202,-29.942096 51.207317,-30.484764 z M 155.91719,-59.51026 L 155.37478,-84.940815 L 1.3994634,-85.441699 C -145.92704,-85.920948 -152.65835,-85.788455 -154.48618,-82.373092 C -155.53685,-80.409873 -156.07817,-77.10347 -155.6891,-75.02552 C -155.30003,-72.94757 -154.91435,-62.884699 -154.83203,-52.663573 L -154.68237,-34.079706 L 0.88862225,-34.079706 L 156.45963,-34.079706 L 155.91719,-59.51026 z M 116.7399,-46.280973 C 122.38842,-46.676125 131.63145,-46.676125 137.27996,-46.280973 C 142.92848,-45.885821 138.30697,-45.562501 127.00993,-45.562501 C 115.7129,-45.562501 111.09138,-45.885821 116.7399,-46.280973 z M -146.85758,-65.07965 L -146.85758,-75.743972 L -137.56565,-76.596228 C -132.45508,-77.064953 -127.56025,-76.836254 -126.68824,-76.088009 C -125.81622,-75.339763 -125.37608,-70.423372 -125.71014,-65.16271 L -126.31752,-55.597867 L -136.58755,-55.006587 L -146.85758,-54.415308 L -146.85758,-65.07965 z M -137.30483,-62.444555 C -135.45784,-62.444555 -132.89034,-61.388209 -131.59925,-60.097119 C -128.38903,-56.886903 -128.65347,-59.525597 -132.23634,-66.454093 C -136.05233,-73.833394 -138.12236,-73.73934 -140.79763,-66.065045 C -142.90774,-60.011927 -143.58228,-55.209699 -141.64964,-59.99931 C -141.10697,-61.344195 -139.15179,-62.444555 -137.30483,-62.444555 z M -137.78402,-67.335046 C -137.1647,-68.948909 -136.31206,-70.269341 -135.88921,-70.269341 C -135.46637,-70.269341 -135.1204,-68.948909 -135.1204,-67.335046 C -135.1204,-65.721184 -135.97307,-64.400752 -137.01519,-64.400752 C -138.05734,-64.400752 -138.40331,-65.721184 -137.78402,-67.335046 z M 47.294924,-55.968234 C 49.177763,-56.460257 52.258772,-56.460257 54.141611,-55.968234 C 56.024451,-55.476192 54.483946,-55.073607 50.718268,-55.073607 C 46.952589,-55.073607 45.412084,-55.476192 47.294924,-55.968234 z M 73.738612,-56.037483 C 77.254582,-56.472855 82.536312,-56.463876 85.475791,-56.01753 C 88.41527,-55.571165 85.538565,-55.214962 79.083117,-55.225936 C 72.627668,-55.23691 70.222642,-55.602112 73.738612,-56.037483 z M 100.15298,-55.801644 C 100.80302,-56.451669 102.49022,-56.521173 103.90236,-55.956067 C 105.46288,-55.33161 104.99936,-54.868069 102.72048,-54.774211 C 100.65834,-54.689273 99.502952,-55.15162 100.15298,-55.801644 z M -1.6099884,-67.705413 C 0.27285071,-68.197436 3.3538602,-68.197436 5.2366993,-67.705413 C 7.1195385,-67.213371 5.5790337,-66.810786 1.8133555,-66.810786 C -1.9523228,-66.810786 -3.4928276,-67.213371 -1.6099884,-67.705413 z M -118.00368,-77.433481 C -116.6588,-77.976149 -114.45807,-77.976149 -113.11319,-77.433481 C -111.7683,-76.890812 -112.86867,-76.446795 -115.55844,-76.446795 C -118.24821,-76.446795 -119.34857,-76.890812 -118.00368,-77.433481 z M -85.685691,-77.319806 C -85.035647,-77.969831 -83.348428,-78.039334 -81.936308,-77.474228 C -80.375791,-76.849771 -80.839312,-76.386231 -83.118183,-76.292372 C -85.180327,-76.207434 -86.335716,-76.669781 -85.685691,-77.319806 z M -66.105455,-77.57822 C -60.962419,-77.982526 -53.039823,-77.977636 -48.499687,-77.567382 C -43.959531,-77.157129 -48.167466,-76.826336 -57.850639,-76.832302 C -67.533811,-76.838249 -71.248472,-77.173913 -66.105455,-77.57822 z M -35.843428,-77.518477 C -33.422635,-77.984756 -29.461337,-77.984756 -27.040544,-77.518477 C -24.61975,-77.052218 -26.600399,-76.67072 -31.441986,-76.67072 C -36.283572,-76.67072 -38.264221,-77.052218 -35.843428,-77.518477 z M 20.753934,-77.602555 C 43.544191,-77.915292 81.396593,-77.915663 104.87038,-77.603396 C 128.34417,-77.291128 109.69759,-77.035258 63.433545,-77.034808 C 17.169498,-77.034338 -2.0363219,-77.289817 20.753934,-77.602555 z M -156.63856,-89.831306 C -153.97137,-94.81501 -155.06267,-94.81501 -159.57286,-89.831306 C -161.52023,-87.67949 -162.12777,-85.918913 -160.92296,-85.918913 C -159.71816,-85.918913 -157.79017,-87.67949 -156.63856,-89.831306 z M 161.01168,-98.735795 C 161.6797,-100.47665 161.35176,-101.26187 160.24287,-100.57654 C 159.17929,-99.919216 158.30908,-98.553048 158.30908,-97.540638 C 158.30908,-94.726786 159.71122,-95.346841 161.01168,-98.735795 z M -160.55096,-98.424897 C -160.55096,-98.847749 -161.9171,-99.717943 -163.58685,-100.3587 C -165.32771,-101.02672 -166.11293,-100.69878 -165.4276,-99.58989 C -164.2788,-97.731093 -160.55096,-96.840554 -160.55096,-98.424897 z M 170.0183,-100.42272 C 168.75145,-101.68957 167.42867,-101.68957 166.16182,-100.42272 C 164.89494,-99.155849 165.55631,-98.494459 168.09006,-98.494459 C 170.6238,-98.494459 171.28517,-99.155849 170.0183,-100.42272 z M 4.2586011,-100.90784 C 2.913716,-101.45051 0.71299492,-101.45051 -0.63189019,-100.90784 C -1.9767753,-100.36517 -0.87641476,-99.921153 1.8133555,-99.921153 C 4.5031257,-99.921153 5.6034862,-100.36517 4.2586011,-100.90784 z "
       id="path1317" />
  </g>
</svg>
