<?xml version="1.0" encoding="UTF-8" standalone="no"?>
<!-- Created with Inkscape (http://www.inkscape.org/) -->
<svg
   xmlns:dc="http://purl.org/dc/elements/1.1/"
   xmlns:cc="http://web.resource.org/cc/"
   xmlns:rdf="http://www.w3.org/1999/02/22-rdf-syntax-ns#"
   xmlns:svg="http://www.w3.org/2000/svg"
   xmlns="http://www.w3.org/2000/svg"
   xmlns:xlink="http://www.w3.org/1999/xlink"
   xmlns:sodipodi="http://inkscape.sourceforge.net/DTD/sodipodi-0.dtd"
   xmlns:inkscape="http://www.inkscape.org/namespaces/inkscape"
   version="1.0"
   width="744.09448"
   height="1052.3622"
   id="svg3777"
   sodipodi:version="0.32"
   inkscape:version="0.42+0.43pre1"
   sodipodi:docname="pose.svg"
   sodipodi:docbase="c:\users\proj\keyboardhero\data\songs\tutorial">
  <metadata
     id="metadata2390">
    <rdf:RDF>
      <cc:Work
         rdf:about="">
        <dc:format>image/svg+xml</dc:format>
        <dc:type
           rdf:resource="http://purl.org/dc/dcmitype/StillImage" />
      </cc:Work>
    </rdf:RDF>
  </metadata>
  <sodipodi:namedview
     inkscape:window-height="1031"
     inkscape:window-width="1400"
     inkscape:pageshadow="2"
     inkscape:pageopacity="0.0"
     borderopacity="1.0"
     bordercolor="#666666"
     pagecolor="#ffffff"
     id="base"
     inkscape:zoom="1.0051974"
     inkscape:cx="-146.69939"
     inkscape:cy="975.98269"
     inkscape:window-x="-4"
     inkscape:window-y="-4"
     inkscape:current-layer="svg3777" />
  <defs
     id="defs3779">
    <linearGradient
       id="linearGradient2355">
      <stop
         style="stop-color:#000000;stop-opacity:0.41520467;"
         offset="0"
         id="stop2357" />
      <stop
         style="stop-color:#000000;stop-opacity:0;"
         offset="1"
         id="stop2359" />
    </linearGradient>
    <radialGradient
       inkscape:collect="always"
       xlink:href="#linearGradient2355"
       id="radialGradient2361"
       cx="-294.96695"
       cy="34.651642"
       fx="-294.96695"
       fy="34.651642"
       r="165.6391"
       gradientTransform="matrix(0.297297,0.000000,0.000000,0.138138,-10.29781,142.2806)"
       gradientUnits="userSpaceOnUse" />
    <radialGradient
       inkscape:collect="always"
       xlink:href="#linearGradient2355"
       id="radialGradient2365"
       gradientUnits="userSpaceOnUse"
       gradientTransform="matrix(0.297297,0.000000,0.000000,0.138138,11.09105,136.3116)"
       cx="-294.96695"
       cy="34.651642"
       fx="-294.96695"
       fy="34.651642"
       r="165.6391" />
    <radialGradient
       inkscape:collect="always"
       xlink:href="#linearGradient2355"
       id="radialGradient2369"
       gradientUnits="userSpaceOnUse"
       gradientTransform="matrix(0.297297,0.000000,0.000000,0.138138,50.88422,131.3168)"
       cx="-294.96695"
       cy="34.651642"
       fx="-294.96695"
       fy="34.651642"
       r="165.6391" />
    <radialGradient
       inkscape:collect="always"
       xlink:href="#linearGradient2355"
       id="radialGradient2373"
       gradientUnits="userSpaceOnUse"
       gradientTransform="matrix(0.459459,0.000000,0.000000,0.231231,134.5513,133.5729)"
       cx="-294.96695"
       cy="34.651642"
       fx="-294.96695"
       fy="34.651642"
       r="165.6391" />
    <radialGradient
       inkscape:collect="always"
       xlink:href="#linearGradient2355"
       id="radialGradient2377"
       gradientUnits="userSpaceOnUse"
       gradientTransform="matrix(0.297297,0.000000,0.000000,0.138138,193.1448,169.1410)"
       cx="-294.96695"
       cy="34.651642"
       fx="-294.96695"
       fy="34.651642"
       r="165.6391" />
    <radialGradient
       inkscape:collect="always"
       xlink:href="#linearGradient2355"
       id="radialGradient2381"
       gradientUnits="userSpaceOnUse"
       gradientTransform="matrix(0.297297,0.000000,0.000000,0.138138,171.2585,163.1720)"
       cx="-294.96695"
       cy="34.651642"
       fx="-294.96695"
       fy="34.651642"
       r="165.6391" />
    <radialGradient
       inkscape:collect="always"
       xlink:href="#linearGradient2355"
       id="radialGradient2385"
       gradientUnits="userSpaceOnUse"
       gradientTransform="matrix(0.297297,0.000000,0.000000,0.138138,148.3775,150.2393)"
       cx="-294.96695"
       cy="34.651642"
       fx="-294.96695"
       fy="34.651642"
       r="165.6391" />
  </defs>
  <g
     id="layer1"
     transform="matrix(1.578854,0.000000,0.000000,1.578854,-8.020055,-33.37231)">
    <g
       transform="matrix(0.520252,0.000000,0.000000,0.520252,-177.4872,-201.7746)"
       id="g5568">
      <path
         d="M 384.52309,244.73864 L 396.52309,248.73864 L 420.02309,342.73864 L 403.52309,372.73864 L 306.02308,392.73865 L 303.58558,365.36364 L 305.46058,353.23864 L 384.52309,244.73864 z "
         style="fill:#ffffff;fill-rule:evenodd;stroke:#ffffff;stroke-width:1;stroke-linecap:butt;stroke-linejoin:miter;stroke-miterlimit:4;stroke-dasharray:none;stroke-opacity:1"
         id="path2099" />
      <path
         d="M 328.02309,214.36364 L 332.27309,234.73864 L 371.39809,238.98864 L 379.52309,216.11364 L 328.02309,214.36364 z "
         style="fill:#ffffff;fill-rule:evenodd;stroke:#ffffff;stroke-width:1;stroke-linecap:butt;stroke-linejoin:miter;stroke-miterlimit:4;stroke-dasharray:none;stroke-opacity:1"
         id="path2986" />
      <path
         d="M 317.99967,379.28979 C 317.9629,378.33964 317.99163,377.43838 318.06355,377.28699 C 318.201,376.99758 320.2191,376.10795 320.43665,376.24086 C 320.60502,376.34373 320.59468,379.69536 320.42518,379.96226 C 320.3174,380.13196 318.39842,381.01733 318.13836,381.01733 C 318.09886,381.01733 318.03644,380.23994 317.99967,379.28979 z M 306.33219,379.87645 C 306.20656,379.7508 306.21355,377.72718 306.34231,376.94858 C 306.4457,376.32338 306.5095,376.27097 307.88038,375.68507 L 308.42814,375.45097 L 308.42814,377.27957 L 308.42814,379.1082 L 307.42771,379.53986 C 306.87747,379.77728 306.38448,379.92874 306.33219,379.87645 z M 321.10593,377.80487 L 321.15295,375.60365 L 322.3325,375.10627 C 322.98125,374.83271 323.60696,374.64531 323.72296,374.68982 C 324.02069,374.80406 324.0209,378.71282 323.72319,378.95982 C 323.54136,379.11069 321.32037,380.00609 321.128,380.00609 C 321.08998,380.00609 321.08006,379.01554 321.10593,377.80487 z M 309.03603,378.70385 C 308.88049,378.54831 308.91901,375.57117 309.07983,375.31752 C 309.26689,375.02254 310.94721,374.25023 311.14116,374.37009 C 311.32572,374.48416 311.34111,377.47894 311.15861,377.7661 C 310.98942,378.03231 309.16883,378.83666 309.03603,378.70385 z M 324.51245,378.26772 C 324.46571,378.14588 324.44912,377.22262 324.47561,376.21601 L 324.52376,374.38581 L 325.69276,373.90706 C 326.33572,373.64374 326.91487,373.48624 326.97978,373.55706 C 327.19104,373.78757 327.26845,377.12724 327.06849,377.38415 C 326.92272,377.5714 324.92066,378.48922 324.65796,378.48922 C 324.62467,378.48922 324.55919,378.38955 324.51245,378.26772 z M 311.79895,375.78444 L 311.79895,373.91785 L 312.85233,373.43943 C 313.60011,373.09982 313.94163,373.01727 314.02953,373.15488 C 314.17686,373.38553 314.19646,375.88676 314.05506,376.414 C 314.00069,376.61674 313.75523,376.85585 313.5096,376.94536 C 313.26398,377.03487 312.77859,377.23027 312.43098,377.37957 L 311.79895,377.65104 L 311.79895,375.78444 z M 328.31241,376.84595 C 328.31048,376.77643 328.26903,375.92319 328.22029,374.94988 C 328.17155,373.97656 328.19209,373.09459 328.26593,372.98997 C 328.33977,372.88534 328.95277,372.56522 329.62816,372.27861 L 330.85613,371.75748 L 331.01862,372.18487 C 331.20783,372.68254 331.23451,375.62598 331.05213,375.88237 C 330.9371,376.04406 328.7109,376.97236 328.43816,376.97236 C 328.37093,376.97236 328.31434,376.91548 328.31241,376.84595 z M 314.66414,374.47862 L 314.66414,372.63634 L 315.65432,372.19197 C 316.19892,371.94756 316.73239,371.7476 316.83981,371.7476 C 316.97869,371.7476 317.0213,372.27035 316.98728,373.55727 L 316.93944,375.36694 L 316.18101,375.72503 C 314.56319,376.48887 314.66414,376.57183 314.66414,374.47862 z M 331.94702,375.41304 C 331.80441,374.9582 331.68973,371.65295 331.81083,371.48772 C 332.01309,371.21176 334.45284,370.24254 334.59652,370.38108 C 334.7727,370.55095 334.96261,373.6224 334.82969,374.15202 C 334.76451,374.41172 334.54045,374.64437 334.25799,374.74561 C 334.00252,374.8372 333.39287,375.07217 332.90324,375.26776 C 332.23911,375.53305 331.99624,375.56996 331.94702,375.41304 z M 306.40565,371.59285 C 306.40565,369.56109 306.45304,367.77526 306.51096,367.62432 C 306.61238,367.36003 308.06528,366.52284 308.42254,366.52284 C 308.61324,366.52284 308.67772,373.69987 308.49138,374.18548 C 308.38996,374.44977 306.93705,375.28696 306.57979,375.28696 C 306.46525,375.28696 306.40565,374.02246 306.40565,371.59285 z M 317.968,374.82676 C 317.83353,374.69226 317.83673,371.68396 317.97174,371.33217 C 318.06123,371.09894 320.20426,369.97641 320.31864,370.10285 C 320.36476,370.15383 320.45473,373.4142 320.41884,373.73394 C 320.39771,373.92221 319.70964,374.28672 318.43149,374.78677 C 318.23246,374.86464 318.02388,374.88264 317.968,374.82676 z M 309.04612,373.99481 C 308.90389,373.85258 308.90275,372.93645 309.04311,371.59355 L 309.15246,370.54735 L 310.11834,370.05978 C 310.64959,369.79161 311.13127,369.61923 311.18878,369.67675 C 311.34594,369.83391 311.30947,372.80951 311.14724,373.06536 C 311.06974,373.18759 310.60832,373.47201 310.12184,373.69739 C 309.11444,374.16413 309.19356,374.14224 309.04612,373.99481 z M 335.66078,373.91399 C 335.53925,373.53809 335.44266,370.08825 335.54899,369.92137 C 335.74707,369.61047 338.28048,368.66713 338.45327,368.83992 C 338.65442,369.04106 338.85639,372.03644 338.70853,372.62554 C 338.60936,373.02066 338.20646,373.23238 336.02807,374.03412 C 335.85122,374.0992 335.70522,374.05145 335.66078,373.91399 z M 321.16765,373.4758 C 321.11322,373.42137 321.06868,372.55044 321.06868,371.5404 L 321.06868,369.70398 L 322.16049,369.20892 C 322.76099,368.93665 323.32163,368.71387 323.40637,368.71387 C 323.62739,368.71387 323.83593,371.98845 323.6375,372.34304 C 323.46097,372.65848 321.32841,373.63656 321.16765,373.4758 z M 311.79895,371.10034 L 311.79895,369.29184 L 312.87671,368.76038 C 313.46947,368.46807 314.00037,368.27483 314.05649,368.33094 C 314.25695,368.5314 314.16342,371.50825 313.94784,371.78892 C 313.83197,371.93977 313.30107,372.25346 312.76805,372.48601 L 311.79895,372.90883 L 311.79895,371.10034 z M 339.54386,372.29536 C 339.37666,371.72847 339.36354,368.38543 339.52789,368.22524 C 339.88206,367.88003 342.35666,367.01294 342.52042,367.17668 C 342.72585,367.38211 342.88039,371.0904 342.69397,371.34109 C 342.58639,371.48576 339.92973,372.5903 339.68937,372.5903 C 339.65718,372.5903 339.59171,372.45759 339.54386,372.29536 z M 324.3646,372.12217 C 324.2245,371.98204 324.25666,368.48858 324.39993,368.28588 C 324.53271,368.09802 326.47943,367.19701 326.75254,367.19701 C 326.93179,367.19701 327.17192,370.31438 327.03283,370.83569 C 326.94598,371.1611 324.55592,372.31347 324.3646,372.12217 z M 314.66414,369.7298 L 314.66414,367.87602 L 315.69617,367.35505 C 316.32013,367.04008 316.78916,366.89504 316.88238,366.98827 C 316.96718,367.07307 317.01471,367.89016 316.988,368.80401 C 316.93392,370.65404 316.95155,370.62784 315.29563,371.31973 L 314.66414,371.58358 L 314.66414,369.7298 z M 328.08418,370.04113 C 327.93902,369.31535 327.95621,366.81477 328.10783,366.60138 C 328.17592,366.50553 328.87008,366.14242 329.65038,365.79446 C 330.74616,365.30585 331.10045,365.21125 331.20679,365.37886 C 331.38021,365.65218 331.38889,368.89686 331.21693,369.16732 C 331.11875,369.32173 328.46806,370.56782 328.23779,370.56782 C 328.21124,370.56782 328.14212,370.33081 328.08418,370.04113 z M 317.96373,369.9348 C 317.82133,369.7924 317.84971,366.64046 317.9954,366.41817 C 318.174,366.14565 320.16573,365.17045 320.28997,365.29469 C 320.49816,365.50288 320.40312,368.83405 320.18384,369.01471 C 319.82734,369.30842 318.06692,370.038 317.96373,369.9348 z M 346.09565,369.89157 C 345.94788,369.65246 345.73484,366.07597 345.849,365.75056 C 345.98282,365.36908 348.99415,364.14811 349.19215,364.39505 C 349.39743,364.65107 349.59955,368.40693 349.42221,368.67009 C 349.31918,368.82299 346.48154,370.06219 346.23446,370.06219 C 346.21612,370.06219 346.15366,369.98541 346.09565,369.89157 z M 309.13854,367.83583 L 309.18657,366.11508 L 310.14417,365.57711 C 310.67085,365.28122 311.14487,365.08224 311.19755,365.13492 C 311.33874,365.27612 311.30914,368.2606 311.16435,368.48109 C 311.04827,368.65787 309.39534,369.55657 309.18629,369.55657 C 309.1336,369.55657 309.11212,368.78224 309.13854,367.83583 z M 332.11772,368.67559 C 331.98693,368.2569 331.8916,365.05138 332.0045,364.86871 C 332.18491,364.57678 334.69829,363.48542 334.80236,363.65381 C 334.96276,363.91334 335.08668,367.44028 334.94207,367.62996 C 334.86653,367.72904 334.50136,367.93147 334.13057,368.07981 C 333.75977,368.22815 333.17029,368.47115 332.82056,368.61982 C 332.32354,368.83112 332.1701,368.84328 332.11772,368.67559 z M 321.02348,366.83573 C 320.97167,365.89545 320.96576,365.03109 321.01033,364.91493 C 321.11892,364.63198 323.3083,363.65473 323.47659,363.81412 C 323.54952,363.88321 323.58744,364.72949 323.56086,365.69476 L 323.51251,367.44981 L 322.50128,367.99284 C 321.9451,368.2915 321.40626,368.53799 321.30387,368.54059 C 321.18593,368.54359 321.08316,367.9187 321.02348,366.83573 z M 350.46521,368.14882 C 350.34262,367.82937 350.10873,364.29569 350.18859,363.96951 C 350.28936,363.55792 353.44682,362.27436 353.71798,362.53476 C 353.85227,362.66372 353.93968,363.46011 353.97079,364.83804 L 354.01835,366.94419 L 353.42845,367.22866 C 353.10401,367.38511 352.32341,367.70528 351.69376,367.94009 C 350.81466,368.26797 350.52952,368.31641 350.46521,368.14882 z M 311.80153,366.56498 C 311.80295,365.66119 311.85983,364.83686 311.92793,364.73314 C 312.11924,364.44181 313.81369,363.63298 313.9963,363.74583 C 314.17472,363.8561 314.22169,366.49917 314.05304,366.93869 C 313.96592,367.16573 312.18807,368.20825 311.88803,368.20825 C 311.83904,368.20825 311.80011,367.46877 311.80153,366.56498 z M 335.82293,366.98633 C 335.70435,366.61205 335.61211,363.34519 335.71568,363.18794 C 335.87948,362.93922 338.50263,361.80946 338.61749,361.93817 C 338.67558,362.00325 338.77191,362.85551 338.83152,363.83205 C 338.91189,365.14838 338.88466,365.67858 338.72627,365.88209 C 338.55605,366.1008 336.2512,367.19701 335.96158,367.19701 C 335.92201,367.19701 335.85963,367.10221 335.82293,366.98633 z M 324.21069,365.99251 C 324.04383,364.39622 324.08093,363.5345 324.32697,363.29048 C 324.65925,362.96091 326.60978,362.06388 326.73084,362.18494 C 326.89111,362.3452 327.02743,365.08172 326.90038,365.58794 C 326.81248,365.93815 326.54571,366.14499 325.68222,366.53241 C 325.07413,366.80524 324.51864,367.02846 324.44778,367.02846 C 324.37694,367.02846 324.27024,366.56228 324.21069,365.99251 z M 314.66549,365.04096 L 314.66686,363.23632 L 315.70423,362.69559 C 316.27478,362.3982 316.80506,362.1941 316.88265,362.24205 C 317.06445,362.35441 317.06247,365.3581 316.8804,365.64508 C 316.80444,365.76483 316.27469,366.08394 315.7032,366.35421 L 314.66414,366.84561 L 314.66549,365.04096 z M 355.14698,366.30995 C 354.92943,366.0478 354.70473,362.12401 354.89337,361.88111 C 355.1216,361.58723 358.13852,360.41584 358.40441,360.51788 C 358.54125,360.57039 358.65328,360.71054 358.65335,360.82931 C 358.65344,360.9481 358.73113,361.864 358.82602,362.86467 C 358.92473,363.90559 358.93602,364.79582 358.85238,364.94525 C 358.74983,365.12852 355.67261,366.51211 355.34518,366.52219 C 355.33335,366.52255 355.24417,366.42704 355.14698,366.30995 z M 306.57677,362.68855 C 306.5782,360.67238 306.63508,358.94094 306.70318,358.8409 C 306.88813,358.56924 308.563,357.66888 308.67504,357.78092 C 308.72838,357.83426 308.71361,359.57639 308.64221,361.65233 L 308.51241,365.42678 L 307.66971,365.8866 C 307.20622,366.13951 306.77012,366.3482 306.7006,366.35037 C 306.63108,366.35253 306.57536,364.70472 306.57677,362.68855 z M 339.72343,365.3852 C 339.57879,365.13524 339.42111,361.87947 339.53877,361.57281 C 339.69556,361.16425 342.48495,359.86442 342.64593,360.12489 C 342.832,360.42596 342.9766,363.85273 342.81592,364.15299 C 342.73502,364.30414 342.07498,364.67227 341.34916,364.97107 C 339.93343,365.55387 339.83547,365.57883 339.72343,365.3852 z M 327.92056,363.9526 C 327.86103,363.18785 327.81187,361.17885 327.81131,359.48816 L 327.81029,356.41417 L 329.17684,355.72709 C 329.92844,355.3492 330.63752,355.07614 330.75258,355.12029 C 330.90679,355.17946 330.99336,356.30132 331.0819,359.38809 C 331.14797,361.69123 331.15688,363.69323 331.10172,363.83696 C 331.01903,364.05245 328.4685,365.34572 328.13023,365.34368 C 328.07444,365.34334 327.98009,364.71736 327.92056,363.9526 z M 309.10489,363.44698 C 309.1063,362.58954 309.16318,361.80312 309.23129,361.69941 C 309.34548,361.52551 310.99875,360.62393 311.20345,360.62393 C 311.25289,360.62393 311.29333,361.3768 311.29333,362.29697 L 311.29333,363.97 L 310.38798,364.48799 C 309.89003,364.77289 309.39705,365.00598 309.29246,365.00598 C 309.1648,365.00598 309.10315,364.49364 309.10489,363.44698 z M 360.02474,364.43859 C 359.79547,364.15417 359.46038,360.32043 359.63718,360.00448 C 359.71929,359.85776 360.57434,359.41119 361.53728,359.01207 C 362.87076,358.45939 363.3322,358.33401 363.47318,358.48606 C 363.7338,358.76717 364.09511,362.58952 363.89487,362.9473 C 363.66503,363.35802 360.22289,364.68437 360.02474,364.43859 z M 343.76635,363.69979 C 343.72501,363.63027 343.63914,362.73911 343.57553,361.71944 C 343.4866,360.29377 343.5114,359.80194 343.68291,359.59035 C 344.01338,359.18261 346.57128,358.08137 346.75684,358.26694 C 346.97676,358.48686 347.20236,361.97594 347.01883,362.31885 C 346.93575,362.47408 346.22613,362.87674 345.44189,363.21364 C 343.88854,363.88095 343.87624,363.88452 343.76635,363.69979 z M 311.87258,363.43791 C 311.82441,363.31236 311.80709,362.53653 311.8341,361.71386 L 311.88321,360.21811 L 312.84494,359.64807 C 313.37387,359.33455 313.88583,359.12696 313.98259,359.18676 C 314.17199,359.30382 314.22973,361.92764 314.05304,362.3881 C 313.99503,362.53929 313.5004,362.88869 312.95387,363.16459 C 312.18749,363.55145 311.94015,363.61397 311.87258,363.43791 z M 331.9686,363.36759 C 331.89679,363.25141 331.79387,360.42773 331.83944,359.82457 C 331.86332,359.50862 336.22984,357.3653 336.3122,357.62909 C 336.43917,358.03582 336.53954,361.25034 336.43077,361.42608 C 336.32715,361.59345 333.0674,363.18061 332.3775,363.39958 C 332.19858,363.45636 332.01457,363.44197 331.9686,363.36759 z M 314.66414,360.37354 L 314.66414,358.60629 L 315.67057,358.09824 C 316.22411,357.81882 316.75501,357.5902 316.85036,357.5902 C 317.03965,357.5902 317.09785,360.40317 316.91822,360.87123 C 316.8311,361.09826 315.05325,362.14079 314.75321,362.14079 C 314.70422,362.14079 314.66414,361.34553 314.66414,360.37354 z M 347.98238,361.84584 C 347.83944,361.59721 347.69474,357.83952 347.82153,357.66862 C 348.04281,357.3703 350.97676,356.10114 351.12492,356.23965 C 351.34724,356.44745 351.61116,360.07204 351.42877,360.41255 C 351.34167,360.57516 350.59845,360.99261 349.77716,361.34022 C 348.18057,362.01599 348.09419,362.04032 347.98238,361.84584 z M 368.00831,361.27345 C 367.96101,361.14795 367.82146,360.1088 367.69825,358.96421 C 367.49761,357.10071 367.50204,356.85191 367.7407,356.58422 C 368.12782,356.15002 371.59109,354.78639 371.79327,354.98856 C 371.98801,355.18331 372.47281,359.15769 372.35621,359.60357 C 372.28427,359.87869 371.22621,360.35612 368.38785,361.39424 C 368.21303,361.4582 368.05954,361.40934 368.00831,361.27345 z M 337.29186,360.83303 C 337.22946,360.67168 337.17523,359.7433 337.17135,358.76998 L 337.16429,357.0003 L 338.57213,356.26768 C 339.34644,355.86472 340.03839,355.59928 340.10982,355.67778 C 340.34619,355.93762 340.44955,359.38235 340.22969,359.6732 C 340.11958,359.81888 339.43905,360.20544 338.71741,360.53224 C 337.5306,361.06967 337.39449,361.09841 337.29186,360.83303 z M 309.20685,360.50375 C 309.14934,360.44625 309.1023,359.76718 309.1023,358.9947 C 309.1023,357.82484 309.15744,357.53505 309.43239,357.26012 C 309.73187,356.96063 310.98125,356.24187 311.20234,356.24187 C 311.25238,356.24187 311.29333,356.99921 311.29333,357.92485 L 311.29333,359.60784 L 310.30237,360.10807 C 309.75733,360.3832 309.26436,360.56125 309.20685,360.50375 z M 352.5109,359.96499 C 352.34482,359.69627 352.06848,356.13131 352.1893,355.81642 C 352.32067,355.47407 355.36681,354.02915 355.69316,354.15437 C 355.94656,354.25161 356.25181,357.7682 356.05946,358.37423 C 355.99236,358.58563 355.41367,358.9325 354.40374,359.36663 C 353.54982,359.73371 352.7984,360.057 352.73391,360.08507 C 352.66942,360.11314 352.56906,360.0591 352.5109,359.96499 z M 341.19626,359.04964 C 341.14856,358.92536 341.09406,357.99628 341.07513,356.98502 L 341.04073,355.14636 L 342.44304,354.41658 C 343.2143,354.0152 343.94254,353.72409 344.06134,353.76967 C 344.2883,353.85677 344.55241,357.24657 344.3694,357.72349 C 344.29585,357.91515 341.65433,359.2756 341.35573,359.2756 C 341.31571,359.2756 341.24394,359.17392 341.19626,359.04964 z M 373.5071,358.89639 C 373.25339,358.19865 372.95956,354.73946 373.12736,354.42593 C 373.32413,354.05825 377.04621,352.48836 377.39962,352.62398 C 377.74888,352.75799 378.31797,356.89361 378.05482,357.38531 C 377.94481,357.59087 377.12812,358.00822 375.88296,358.49518 C 374.78539,358.92442 373.83285,359.2756 373.76619,359.2756 C 373.69952,359.2756 373.58293,359.10495 373.5071,358.89639 z M 311.79895,357.53205 C 311.79895,356.24064 311.85205,355.91155 312.0939,355.70441 C 312.70051,355.18483 316.68879,353.02105 316.8529,353.12249 C 317.04746,353.24272 317.08396,356.0576 316.89471,356.34692 C 316.75254,356.5643 312.20815,359.10706 311.96184,359.10706 C 311.86863,359.10706 311.79895,358.43327 311.79895,357.53205 z M 320.99354,358.8072 C 320.94217,358.75582 320.90014,357.93516 320.90014,356.98349 L 320.90014,355.25318 L 322.03037,354.65303 C 322.65199,354.32294 323.22371,354.11598 323.30086,354.19312 C 323.37799,354.27026 323.41924,355.08361 323.39255,356.00057 L 323.34397,357.66775 L 322.21546,358.28418 C 321.59477,358.62321 321.04491,358.85857 320.99354,358.8072 z M 331.80055,358.30411 C 331.6562,358.05431 331.51518,354.80374 331.64109,354.62865 C 331.85913,354.32547 334.35202,353.02104 334.44032,353.16393 C 334.5108,353.27796 334.6127,356.25427 334.56727,356.87202 C 334.54921,357.11779 331.90572,358.48609 331.80055,358.30411 z M 357.17049,357.88043 C 356.94396,357.60245 356.7424,353.85947 356.9384,353.57057 C 357.16865,353.23119 360.37004,351.82382 360.53546,351.98925 C 360.77643,352.23021 361.07289,355.89163 360.88485,356.30434 C 360.78319,356.52743 360.29872,356.84437 359.64354,357.11638 C 359.05252,357.36174 358.29206,357.68037 357.95364,357.82443 C 357.47311,358.029 357.30156,358.04125 357.17049,357.88043 z M 345.2922,357.30674 C 345.14223,357.04953 344.9925,353.46214 345.12378,353.27155 C 345.33001,352.97215 348.04877,351.66044 348.27955,351.749 C 348.49794,351.83281 348.78475,355.34358 348.61035,355.79809 C 348.56043,355.92815 347.89866,356.31644 347.13973,356.66097 C 345.31803,357.48795 345.38435,357.46477 345.2922,357.30674 z M 379.44739,356.78705 C 379.19467,356.62158 378.69201,352.37603 378.88292,352.01931 C 379.07188,351.66625 383.12291,349.96379 383.46328,350.09441 C 383.79643,350.22225 384.41185,354.63317 384.15365,355.0425 C 384.00013,355.28588 380.21217,356.91922 379.81461,356.91346 C 379.71666,356.91204 379.55141,356.85516 379.44739,356.78705 z M 335.30328,356.36851 C 335.25397,356.23998 335.23538,355.34359 335.26199,354.37654 L 335.31035,352.61825 L 336.65868,351.91326 C 337.40026,351.52549 338.05436,351.26005 338.11226,351.32335 C 338.2737,351.49994 338.44312,354.9523 338.30087,355.16675 C 338.16646,355.36938 336.40109,356.28952 335.77301,356.48432 C 335.51788,356.56346 335.36349,356.52539 335.30328,356.36851 z M 362.07847,355.69412 C 362.00477,355.57824 361.86355,354.62017 361.76462,353.56507 C 361.54648,351.2384 361.50799,351.30407 363.64742,350.353 C 365.28891,349.62328 365.4843,349.57303 365.64823,349.83827 C 365.84693,350.15978 366.16589,353.84623 366.02221,354.16051 C 365.93866,354.34327 365.16631,354.76851 364.15516,355.1885 C 362.21781,355.99318 362.26185,355.98246 362.07847,355.69412 z M 317.90265,354.02017 L 317.95068,352.30409 L 318.87766,351.75144 C 319.38749,351.44747 319.90208,351.19583 320.0212,351.19222 C 320.18688,351.1872 320.22649,351.58883 320.18974,352.90173 L 320.14171,354.61783 L 319.21473,355.17047 C 318.70489,355.47444 318.1903,355.72609 318.07119,355.72969 C 317.90549,355.73472 317.8659,355.33309 317.90265,354.02017 z M 349.58107,355.10423 C 349.39175,354.73529 349.18738,351.62215 349.32836,351.25475 C 349.4547,350.92552 352.59268,349.43862 352.77278,349.62265 C 352.84297,349.69438 352.95408,350.68157 353.01969,351.81642 L 353.13898,353.87977 L 351.50216,354.63948 C 350.6019,355.05731 349.83542,355.39916 349.79888,355.39916 C 349.76233,355.39916 349.66431,355.26645 349.58107,355.10423 z M 327.64176,353.47244 C 327.64176,351.74536 327.64996,351.70849 328.10524,351.39001 C 328.99744,350.76589 332.50214,348.98276 332.57777,349.11448 C 332.73653,349.39104 332.86313,352.45953 332.72453,352.67195 C 332.55912,352.92545 328.17348,355.22758 327.85244,355.22942 C 327.69728,355.23031 327.64176,354.76728 327.64176,353.47244 z M 339.21058,354.59497 C 339.0576,354.34743 338.91634,350.93206 339.05128,350.74343 C 339.12582,350.63928 339.81421,350.23939 340.58107,349.8548 C 341.71808,349.28458 341.99327,349.20222 342.07239,349.40843 C 342.12577,349.54751 342.18093,350.4783 342.19497,351.47686 L 342.22052,353.29241 L 340.87219,354.00293 C 339.43283,354.76142 339.335,354.79628 339.21058,354.59497 z M 385.67098,354.424 C 385.40487,354.25375 384.76958,349.84035 384.95926,349.47952 C 385.03834,349.32906 386.14357,348.77711 387.41534,348.25296 C 389.27527,347.48641 389.76727,347.34208 389.93019,347.51527 C 390.04158,347.63369 390.26129,348.63926 390.41844,349.74987 C 390.57558,350.86048 390.73668,351.8218 390.77644,351.88613 C 390.81621,351.95047 390.76725,352.18195 390.66767,352.40052 C 390.52964,352.70344 389.99808,352.9858 388.43235,353.58792 C 385.7573,354.61666 385.90312,354.57251 385.67098,354.424 z M 320.83529,353.95643 C 320.68987,353.57745 320.71043,350.97164 320.86058,350.75042 C 320.99597,350.55097 323.10844,349.28712 323.17326,349.36681 C 323.28957,349.50982 323.40485,352.64589 323.29951,352.8013 C 323.23127,352.90198 322.67224,353.26387 322.05722,353.6055 C 321.10532,354.13427 320.92358,354.18647 320.83529,353.95643 z M 367.18293,353.57501 C 367.02352,353.31709 366.70306,349.683 366.80417,349.28009 C 366.88327,348.96492 367.3054,348.69832 368.79877,348.02034 C 370.08252,347.43752 370.75633,347.21289 370.88946,347.32337 C 371.12641,347.52003 371.55382,351.13515 371.40854,351.71397 C 371.32462,352.04835 370.95548,352.27064 369.40364,352.92128 C 367.37733,353.77085 367.31525,353.78913 367.18293,353.57501 z M 354.12669,353.22302 C 354.00137,353.14557 353.91826,352.3628 353.89138,351.00681 L 353.84981,348.91036 L 355.45095,348.11062 C 356.33157,347.67076 357.12685,347.33543 357.21822,347.36543 C 357.51882,347.46413 357.92962,351.26347 357.68061,351.6419 C 357.46832,351.96454 354.34137,353.3557 354.12669,353.22302 z M 343.07161,352.49185 C 342.96616,352.15167 342.8468,349.09844 342.93,348.86965 C 342.97184,348.75457 343.65049,348.30915 344.43809,347.87982 C 345.48586,347.30868 345.92021,347.14934 346.05686,347.28599 C 346.16171,347.39083 346.27567,348.31042 346.31672,349.38284 L 346.38983,351.29294 L 344.92101,351.99774 C 343.32072,352.76562 343.16903,352.80614 343.07161,352.49185 z M 323.93386,350.61034 L 323.93386,348.85523 L 325.12845,348.1665 C 325.78548,347.7877 326.34452,347.47776 326.37077,347.47776 C 326.48239,347.47776 326.64595,350.53446 326.55043,350.83539 C 326.45163,351.14668 324.51341,352.36544 324.11715,352.36544 C 323.99687,352.36544 323.93386,351.76221 323.93386,350.61034 z M 333.6049,352.16448 C 333.447,351.90898 333.31258,349.25486 333.43321,348.77426 C 333.51147,348.46245 333.88106,348.16615 334.83062,347.65396 C 335.57247,347.25382 336.18465,347.02058 336.26974,347.10568 C 336.35119,347.18714 336.39617,348.08122 336.36971,349.09255 L 336.3216,350.93133 L 335.01499,351.63163 C 334.25223,352.04045 333.66532,352.26223 333.6049,352.16448 z M 372.69802,351.2238 C 372.46876,351.07795 372.02675,347.16403 372.19117,346.73559 C 372.25172,346.5778 373.04157,346.10368 373.94639,345.68198 C 376.08837,344.6837 376.25954,344.62106 376.47752,344.75578 C 376.73518,344.91503 377.25481,349.08207 377.06033,349.42958 C 376.97597,349.58034 376.04662,350.07505 374.9951,350.52894 C 372.91804,351.42553 372.98384,351.40562 372.69802,351.2238 z M 358.74694,350.99247 C 358.59128,350.53511 358.32586,347.14289 358.42544,346.8834 C 358.55026,346.55814 361.80891,344.89571 362.10155,345.00802 C 362.32794,345.09489 362.78359,348.91369 362.61867,349.34197 C 362.56731,349.47537 361.82471,349.90209 360.96846,350.29023 C 358.84473,351.25293 358.83648,351.25556 358.74694,350.99247 z M 347.10877,349.28958 C 347.04609,348.52482 347.02032,347.59682 347.0515,347.22735 C 347.10696,346.57014 347.14073,346.538 348.61009,345.74368 C 349.83112,345.08357 350.15036,344.97282 350.31727,345.15137 C 350.55122,345.40166 350.79872,348.80597 350.60432,349.09976 C 350.4443,349.3416 347.78468,350.68003 347.46414,350.68003 C 347.28333,350.68003 347.19411,350.33099 347.10877,349.28958 z M 327.57551,350.07636 C 327.43116,349.70017 327.45284,347.09512 327.60221,346.86882 C 327.82651,346.529 331.9277,344.2805 332.06776,344.42057 C 332.1431,344.49591 332.18301,345.34425 332.15642,346.30575 L 332.10808,348.05395 L 330.08559,349.18631 C 328.97323,349.80911 327.97642,350.32414 327.87047,350.33083 C 327.76451,350.33749 327.63178,350.22299 327.57551,350.07636 z M 337.15277,350.12088 C 337.1059,349.99874 337.08932,349.10995 337.11593,348.14577 L 337.16429,346.39273 L 338.48087,345.66766 C 339.20498,345.26887 339.86153,344.98221 339.93989,345.03063 C 340.12938,345.14774 340.35069,348.17657 340.20361,348.63997 C 340.12871,348.87598 339.62039,349.23894 338.75637,349.67335 C 337.25475,350.42836 337.26921,350.42432 337.15277,350.12088 z M 399.13666,349.18838 C 399.01617,349.11151 398.81143,348.41076 398.68171,347.63116 C 398.55197,346.85157 398.36261,345.77925 398.26089,345.24823 C 398.14034,344.61888 398.1325,344.17709 398.23837,343.97928 C 398.43722,343.60773 403.35725,341.54041 403.7155,341.67788 C 403.8547,341.73129 404.04161,342.12904 404.13085,342.56177 C 404.66411,345.1477 404.86495,346.4861 404.77406,346.84825 C 404.6739,347.24726 404.0792,347.52089 399.52429,349.26368 C 399.4316,349.29915 399.25716,349.26527 399.13666,349.18838 z M 378.40405,348.77272 C 378.18292,348.49636 377.66877,344.54856 377.80698,344.18838 C 377.90822,343.92454 378.62913,343.5473 381.34244,342.33824 C 381.81721,342.12668 382.28319,342.002 382.37795,342.06117 C 382.66155,342.23824 383.24074,346.49817 383.02785,346.84121 C 382.92873,347.00094 382.46642,347.29598 382.0005,347.49686 C 378.67282,348.93156 378.56246,348.97071 378.40405,348.77272 z M 363.63236,348.61542 C 363.48078,348.13511 363.21813,344.77139 363.31291,344.52438 C 363.44876,344.17036 366.96292,342.41342 367.21882,342.57158 C 367.41793,342.69463 367.91946,346.56125 367.7876,346.9568 C 367.71301,347.18058 364.32028,348.82609 363.93347,348.82609 C 363.80443,348.82609 363.66893,348.73128 363.63236,348.61542 z M 351.59597,348.28138 C 351.40813,347.77233 351.21455,344.86832 351.34568,344.52659 C 351.4968,344.1328 354.76427,342.52472 354.85956,342.79725 C 354.99329,343.17968 355.24418,346.53857 355.15615,346.76797 C 355.10914,346.89049 354.3206,347.36716 353.40384,347.8272 C 351.74243,348.66093 351.73657,348.6624 351.59597,348.28138 z M 341.04853,348.10979 C 341.01228,347.99392 340.93563,347.17852 340.87818,346.29776 C 340.8007,345.10988 340.82996,344.62687 340.9915,344.42711 C 341.11127,344.279 341.79418,343.84261 342.50907,343.45737 C 343.71272,342.80875 343.82099,342.77957 343.97268,343.06298 C 344.13872,343.37325 344.29813,346.72505 344.15323,346.85973 C 344.03217,346.97227 341.3136,348.32047 341.20772,348.32047 C 341.1564,348.32047 341.08478,348.22566 341.04853,348.10979 z M 332.94441,347.26911 C 332.89446,347.13893 332.87545,346.2826 332.90219,345.36616 L 332.95078,343.69989 L 334.18389,342.97342 C 334.8621,342.57385 335.48781,342.2907 335.57434,342.34419 C 335.6609,342.39768 335.7317,343.26185 335.7317,344.26457 L 335.7317,346.0877 L 334.50979,346.7406 C 333.83773,347.09969 333.23102,347.41877 333.16155,347.44964 C 333.09208,347.48054 332.99437,347.39929 332.94441,347.26911 z M 368.87764,346.34011 C 368.71738,346.07513 368.39221,342.42293 368.49586,342.0522 C 368.57771,341.75945 369.06277,341.44541 370.45515,340.7837 C 371.47294,340.30002 372.41138,339.94485 372.54058,339.99441 C 372.70072,340.05587 372.83743,340.63072 372.97017,341.80081 C 373.07724,342.74476 373.19729,343.67545 373.23692,343.86902 C 373.35569,344.44908 372.97833,344.75438 371.05926,345.63081 C 369.15634,346.49985 369.00416,346.54933 368.87764,346.34011 z M 345.11707,346.18021 C 344.9681,345.93917 344.78774,342.96144 344.89601,342.53014 C 344.97352,342.22128 345.37556,341.90783 346.43474,341.33046 C 347.22334,340.9006 347.93574,340.59043 348.01785,340.64118 C 348.21038,340.76017 348.44187,343.95914 348.2921,344.43105 C 348.19824,344.72676 346.99789,345.4647 345.31183,346.26323 C 345.2508,346.29213 345.16316,346.25477 345.11707,346.18021 z M 356.06305,345.8345 C 355.88324,344.89644 355.75902,342.60993 355.86903,342.2633 C 355.99818,341.85637 359.15379,340.18302 359.43847,340.37051 C 359.68001,340.52957 359.99992,344.11625 359.80574,344.48793 C 359.64379,344.79789 356.81686,346.29798 356.39468,346.29798 C 356.26114,346.29798 356.11191,346.08942 356.06305,345.8345 z M 384.47765,346.15507 C 384.2223,345.99452 383.67151,342.14572 383.81954,341.55625 C 383.95666,341.01017 388.36825,338.95994 388.65714,339.30803 C 388.75761,339.42908 388.98992,340.49278 389.17338,341.67181 C 389.44858,343.44032 389.46914,343.87233 389.29087,344.14033 C 389.17202,344.31898 388.21151,344.83769 387.15642,345.29302 C 384.82321,346.29989 384.74701,346.32441 384.47765,346.15507 z M 336.48943,344.06482 C 336.29996,341.77892 336.2951,341.7904 337.83846,340.88058 C 338.58004,340.44342 339.23436,340.13728 339.2925,340.20027 C 339.4418,340.362 339.59675,343.68591 339.46449,343.88976 C 339.35627,344.05656 336.88772,345.45528 336.70157,345.45528 C 336.64827,345.45528 336.55281,344.82958 336.48943,344.06482 z M 349.29634,343.93376 C 349.11955,343.6477 348.91109,340.32964 349.0531,340.06199 C 349.12687,339.92293 349.86646,339.44856 350.69665,339.00781 C 351.86425,338.38791 352.24458,338.25433 352.37614,338.41791 C 352.58892,338.68249 352.81177,342.10074 352.63303,342.3583 C 352.39757,342.69761 349.40549,344.11036 349.29634,343.93376 z M 360.93191,343.94393 C 360.77903,343.69654 360.47288,340.22148 360.56992,339.83488 C 360.63499,339.57563 361.17517,339.21626 362.46121,338.57668 C 363.45132,338.08426 364.31976,337.74299 364.39105,337.81831 C 364.58043,338.01835 364.91967,341.48903 364.79463,341.9472 C 364.71437,342.24123 364.23688,342.55319 362.85545,343.21409 C 361.84747,343.69634 360.98188,344.02477 360.93191,343.94393 z M 374.36902,343.72774 C 374.11814,343.41363 373.74235,339.66852 373.92837,339.33612 C 374.01356,339.18389 374.97936,338.62233 376.07458,338.08821 C 377.92902,337.18386 378.08088,337.13759 378.28392,337.41526 C 378.53521,337.75892 378.98119,341.40412 378.82253,341.81758 C 378.73243,342.05238 375.03442,343.93841 374.66414,343.93841 C 374.59436,343.93841 374.46157,343.84361 374.36902,343.72774 z M 390.8782,343.45722 C 390.68808,343.33662 390.51185,342.47025 390.06716,339.47012 C 389.99018,338.9507 390.03934,338.71271 390.2793,338.44329 C 390.69,337.98218 394.79857,336.16127 395.13609,336.29078 C 395.43777,336.40655 395.45288,336.46255 395.88023,339.04906 C 396.14646,340.66037 396.16321,341.03838 395.98005,341.29991 C 395.85896,341.47278 394.7112,342.06132 393.42946,342.60778 C 392.14771,343.15423 391.09862,343.60017 391.09814,343.59875 C 391.09766,343.59733 390.99869,343.53364 390.8782,343.45722 z M 340.40051,343.3111 C 340.25292,343.05666 340.1085,339.80667 340.23665,339.62384 C 340.4613,339.30336 343.04451,337.86845 343.16149,337.99918 C 343.22281,338.06769 343.32007,338.88738 343.37761,339.82068 C 343.45379,341.05604 343.42526,341.5884 343.27273,341.77789 C 342.9784,342.14357 340.49287,343.47035 340.40051,343.3111 z M 353.68459,341.58423 C 353.50086,341.28695 353.2808,337.97224 353.42741,337.71028 C 353.62949,337.34918 356.68576,335.67669 356.85091,335.83683 C 357.0307,336.01115 357.35837,339.32034 357.24183,339.78469 C 357.1778,340.03984 356.67364,340.38429 355.54023,340.94732 C 353.75241,341.83542 353.82454,341.81066 353.68459,341.58423 z M 365.95253,341.36818 C 365.73246,341.02812 365.41823,337.48055 365.58072,337.17034 C 365.66118,337.01674 366.56254,336.46367 367.58378,335.9413 C 369.43857,334.99256 369.44071,334.99194 369.59675,335.37787 C 369.81163,335.90933 370.13458,339.13798 370.0063,339.47229 C 369.92389,339.68706 366.47514,341.57884 366.16602,341.57884 C 366.1236,341.57884 366.02754,341.48404 365.95253,341.36818 z M 344.25139,341.0311 C 344.06311,340.42363 344.03493,337.53948 344.21513,337.31933 C 344.46442,337.01479 346.81337,335.67993 347.1,335.67993 C 347.25283,335.67993 347.34856,336.18093 347.43109,337.41286 C 347.49493,338.36597 347.50436,339.25713 347.45204,339.39321 C 347.37152,339.60264 344.67055,341.24176 344.40596,341.24176 C 344.35686,341.24176 344.28731,341.14696 344.25139,341.0311 z M 380.06168,340.83048 C 379.83728,340.24024 379.47766,336.96011 379.60186,336.63642 C 379.7292,336.30456 383.68824,334.29196 384.06932,334.36535 C 384.28074,334.40607 384.41039,334.88248 384.65372,336.51261 C 384.82569,337.66483 384.92607,338.76825 384.87678,338.96466 C 384.81034,339.22939 384.24134,339.57011 382.67728,340.28176 C 381.51683,340.80977 380.4888,341.24176 380.39273,341.24176 C 380.29666,341.24176 380.14769,341.05669 380.06168,340.83048 z M 397.63805,340.43476 C 397.5276,340.36453 397.35354,339.81583 397.25126,339.21542 C 396.73815,336.20346 396.71326,335.96437 396.87551,335.60826 C 397.11872,335.07448 401.95442,332.89065 402.23019,333.19005 C 402.43348,333.41076 403.15172,336.94975 403.14596,337.70241 C 403.14419,337.93416 403.08703,338.20901 403.01892,338.31319 C 402.90662,338.48499 398.21009,340.57112 397.94934,340.56503 C 397.88859,340.56361 397.7485,340.50499 397.63805,340.43476 z M 358.23133,339.17715 C 358.08303,338.75631 357.81818,335.51895 357.91203,335.27438 C 357.96506,335.13621 358.77823,334.59936 359.71909,334.0814 C 361.23442,333.24714 361.45228,333.17044 361.62715,333.40959 C 361.83284,333.6909 362.12658,337.02355 361.97944,337.40693 C 361.90449,337.60229 358.6927,339.38782 358.41628,339.38782 C 358.35537,339.38782 358.27215,339.29302 358.23133,339.17715 z M 348.3072,337.99736 C 348.18132,336.9252 348.12727,335.02132 348.22052,334.94504 C 348.75928,334.50441 351.32892,333.17589 351.43577,333.28274 C 351.51506,333.36204 351.59766,334.29031 351.61935,335.34559 L 351.65878,337.26427 L 350.22619,338.06977 C 349.43827,338.5128 348.70753,338.87683 348.60234,338.87874 C 348.49642,338.88065 348.36474,338.48743 348.3072,337.99736 z M 371.04824,338.33445 C 370.75295,336.58105 370.62427,334.80632 370.77236,334.52964 C 370.9876,334.12742 374.55825,332.27891 374.88081,332.40268 C 375.16743,332.51267 375.62553,336.05905 375.43956,336.72815 C 375.35924,337.01711 374.86285,337.33338 373.43965,338.0023 C 372.39845,338.49169 371.4552,338.88986 371.34352,338.88714 C 371.23185,338.88443 371.09897,338.63571 371.04824,338.33445 z M 386.29908,338.3798 C 386.06473,338.23496 385.41249,334.22081 385.55146,333.77852 C 385.64633,333.47657 389.76612,331.29787 390.24221,331.29787 C 390.60497,331.29787 390.63738,331.40034 391.01062,333.72688 C 391.23597,335.13163 391.29985,335.96447 391.19699,336.15667 C 390.99559,336.53298 386.56486,338.54407 386.29908,338.3798 z M 363.028,336.41925 C 362.9359,336.17698 362.84297,335.18541 362.8215,334.21575 L 362.78246,332.45273 L 364.59683,331.44558 C 365.59474,330.89167 366.47587,330.47843 366.55492,330.52728 C 366.7482,330.64673 367.13542,334.22931 367.00087,334.65325 C 366.93577,334.85838 366.21628,335.3526 365.15045,335.9243 C 364.19131,336.43878 363.35906,336.85971 363.301,336.85971 C 363.24296,336.85971 363.1201,336.6615 363.028,336.41925 z M 352.69382,336.3926 C 352.5406,336.14468 352.39968,332.72953 352.53468,332.53565 C 352.78589,332.17486 370.34255,322.1893 370.48145,322.32822 C 370.55704,322.40381 370.73314,323.3318 370.87277,324.39041 C 371.11106,326.19723 371.10851,326.33322 370.83098,326.60989 C 370.50578,326.93409 353.19578,336.52263 352.93572,336.52263 C 352.84687,336.52263 352.73803,336.46412 352.69382,336.3926 z M 376.72298,335.97488 C 376.42943,335.61921 376.08288,331.87252 376.31739,331.58995 C 376.6298,331.21352 380.19925,329.41399 380.51349,329.47451 C 380.73775,329.5177 380.85693,329.94383 381.0942,331.55101 C 381.2584,332.66321 381.35199,333.70825 381.30218,333.87335 C 381.22209,334.13881 377.45577,336.18556 377.04736,336.18556 C 376.96459,336.18556 376.81861,336.09075 376.72298,335.97488 z M 392.73037,335.36698 C 392.47406,335.20351 391.78861,331.25103 391.92342,330.71393 C 392.05276,330.19856 400.51874,326.09537 400.92457,326.35136 C 401.28758,326.58034 402.04989,330.71018 401.82208,331.21361 C 401.71972,331.43979 400.29689,332.17923 397.49725,333.46119 C 392.58127,335.71223 393.00565,335.54257 392.73037,335.36698 z M 368.08419,334.12093 C 367.85037,332.77041 367.65278,330.13943 367.76887,329.9225 C 367.853,329.7653 368.50987,329.31706 369.22858,328.92642 C 369.94729,328.53576 370.76509,328.0794 371.04592,327.91228 C 371.32675,327.74516 371.64176,327.66116 371.74594,327.72562 C 371.85014,327.79006 372.04222,328.74314 372.17281,329.84356 C 372.38558,331.63662 372.3829,331.8755 372.14693,332.14448 C 371.70824,332.64456 368.12997,334.38533 368.08419,334.12093 z M 382.52781,333.19396 C 382.35606,332.91578 381.89212,329.20825 381.9835,328.84416 C 382.05812,328.54685 382.60582,328.18831 384.2911,327.33352 C 385.68495,326.62655 386.55992,326.27176 386.6608,326.37265 C 386.74876,326.46061 386.97029,327.45311 387.15308,328.5782 C 387.40905,330.15362 387.44171,330.70553 387.29518,330.97934 C 387.18093,331.19282 386.26561,331.73157 385.00448,332.32762 C 382.84997,333.34593 382.66221,333.41161 382.52781,333.19396 z M 373.54416,331.33189 C 373.31104,331.18446 372.89576,327.7767 373.04058,327.19965 C 373.12288,326.87176 373.57451,326.54276 375.03039,325.75014 C 376.06624,325.1862 377.01298,324.7248 377.13427,324.7248 C 377.39123,324.7248 377.44848,324.95244 377.7135,327.02762 C 377.82196,327.87703 377.86555,328.75197 377.81034,328.97191 C 377.73408,329.27574 377.23202,329.62147 375.72057,330.41098 C 374.62641,330.98253 373.64702,331.39694 373.54416,331.33189 z M 388.66483,329.90742 C 388.3669,329.1539 387.95803,325.91261 388.12356,325.6168 C 388.2118,325.45915 390.81305,324.02314 393.90413,322.42569 C 398.2055,320.20277 399.56956,319.56818 399.71724,319.72131 C 400.07716,320.09449 400.73594,324.04158 400.5067,324.45122 C 400.36923,324.69686 389.3228,330.28663 388.97484,330.28663 C 388.88678,330.28663 388.74727,330.11599 388.66483,329.90742 z M 379.02895,328.39056 C 379.01923,328.36737 378.87976,327.4383 378.71903,326.32594 C 378.50331,324.8331 378.47483,324.22457 378.61029,324.00228 C 378.85482,323.601 382.69188,321.50907 382.98036,321.61978 C 383.32386,321.75159 383.88425,325.81153 383.60534,326.1476 C 383.17345,326.66799 379.13634,328.64664 379.02895,328.39056 z M 372.22769,325.7473 C 372.03652,325.43799 371.60469,322.15525 371.70342,321.76188 C 371.81381,321.32208 375.62166,319.04021 375.85344,319.27496 C 376.03121,319.45502 376.51984,323.17691 376.40499,323.47618 C 376.35746,323.60005 375.58617,324.09517 374.691,324.57647 C 373.79583,325.05776 372.8998,325.5576 372.69983,325.68722 C 372.45815,325.84386 372.29982,325.86401 372.22769,325.7473 z M 384.95276,324.99661 C 384.68611,324.29526 384.29791,321.12256 384.44463,320.84379 C 384.63342,320.48511 398.23092,313.09484 398.50708,313.2008 C 398.6306,313.2482 398.7677,313.52831 398.81176,313.82327 C 398.85582,314.11823 399.01879,315.04159 399.17393,315.87522 C 399.32908,316.70883 399.41712,317.54585 399.36957,317.73528 C 399.30574,317.98961 397.47146,319.02567 392.35518,321.69718 C 388.54481,323.68682 385.35724,325.33982 385.2717,325.37052 C 385.18614,325.40123 385.04263,325.23297 384.95276,324.99661 z M 377.4562,321.73321 C 377.39439,321.20019 377.26394,320.33784 377.16635,319.81684 C 377.03974,319.14104 377.04156,318.77115 377.17274,318.52606 C 377.27385,318.3371 378.24314,317.67347 379.32668,317.05131 C 381.65217,315.71604 381.60793,315.7006 381.90405,317.95147 C 382.01,318.75684 382.1293,319.57415 382.16915,319.76773 C 382.20902,319.96132 382.14846,320.23984 382.03458,320.3867 C 381.77611,320.72002 378.17165,322.7023 377.82402,322.7023 C 377.63845,322.7023 377.53786,322.43725 377.4562,321.73321 z M 383.26013,319.10077 C 383.26013,318.88116 383.14277,318.02847 382.99932,317.20589 C 382.85587,316.38332 382.77903,315.54883 382.82856,315.35148 C 382.88998,315.10681 383.58925,314.61048 385.02672,313.79127 C 386.18616,313.13051 387.21292,312.58988 387.3084,312.58988 C 387.56436,312.58988 387.75092,313.2041 387.8871,314.49514 C 387.95363,315.1259 388.07491,315.87509 388.15663,316.16 C 388.37716,316.92895 388.08489,317.2163 385.85125,318.42658 C 383.66772,319.60971 383.26013,319.71578 383.26013,319.10077 z M 389.42791,315.91856 C 389.07302,314.62148 388.76164,311.89268 388.94045,311.64644 C 389.21887,311.26299 397.08512,306.87188 397.3272,306.96478 C 397.46454,307.01748 397.62367,307.33768 397.68083,307.67635 C 397.73798,308.01501 397.8992,308.88286 398.0391,309.60492 C 398.3639,311.28134 398.27392,311.61828 397.37662,312.08543 C 396.98199,312.29089 395.16521,313.28479 393.33932,314.29411 C 391.51345,315.30343 389.89941,316.12923 389.75256,316.12923 C 389.6057,316.12923 389.4596,316.03443 389.42791,315.91856 z "
         style="fill:#000000"
         id="path1932" />
      <path
         d="M 459.74385,643.85878 C 456.57937,643.55683 453.82636,640.88277 451.79207,638.60416 C 451.63358,637.97271 453.44681,634.47263 455.0683,632.28006 C 459.22538,624.59033 472.40148,614.56223 473.13049,612.6568 C 473.65511,611.28559 460.87144,595.61492 451.89309,591.15093 C 450.00594,587.3294 448.78,583.19281 446.67773,579.4444 C 439.06833,572.3803 430.68046,566.06099 422.31966,559.88946 C 415.90201,555.499 410.26777,550.06114 403.95632,545.54082 C 399.29673,542.20291 395.67593,537.70483 392.08049,533.29917 C 385.62996,523.13028 380.8843,510.5549 378.94666,498.71525 C 378.94404,498.36132 378.75395,497.65766 378.52424,497.15159 C 376.19408,488.71822 375.895,479.90085 373.68822,471.44098 C 372.40434,465.70843 369.72876,460.47266 367.69289,455.02099 C 364.75646,448.35526 360.75463,441.71125 355.04136,437.12414 C 349.17303,439.81784 344.64493,444.96057 340.52058,449.78998 C 331.32097,460.91678 324.30884,473.60612 316.90301,485.94715 C 316.125,487.35596 315.84553,487.17053 314.64425,487.08541 C 313.73002,487.02063 309.07521,495.69261 304.9122,499.91729 C 302.60273,502.26098 301.14884,505.14971 299.58523,507.98854 C 292.5177,519.62876 284.08395,530.46763 278.47894,542.95846 C 278.36164,543.47285 277.8982,544.39843 277.44907,545.01531 C 272.98119,551.50908 269.56829,558.646 265.51584,565.40633 C 264.10175,567.51704 263.31086,569.92832 262.29403,572.22639 C 261.73288,573.37297 261.85759,573.3294 260.90573,573.37028 C 260.29216,573.39663 255.39878,579.00361 252.14541,582.21513 C 250.39574,583.94229 250.47313,583.91116 250.55347,586.55585 C 250.58126,587.47086 250.4956,588.54794 250.36311,588.94939 C 250.05403,589.8859 243.68912,596.25901 243.06288,596.25901 C 241.79976,595.65074 241.1732,595.37355 239.78682,595.9254 C 239.13187,596.33543 238.09491,597.21942 237.80984,597.3442 C 236.61328,597.86789 235.49362,599.07084 233.78038,601.67338 C 230.38019,605.87041 221.43626,611.51575 219.60824,611.84773 C 217.69373,612.19542 212.22553,612.09781 208.59872,611.39013 C 206.12411,610.61101 199.52047,610.09108 200.14561,606.37249 C 201.07453,604.21526 201.84248,602.00283 202.71409,599.83142 C 207.14674,590.14689 216.43282,583.64166 224.47151,577.1035 C 227.33336,574.87641 227.45322,574.7309 227.27829,573.69552 C 227.16128,573.00291 227.23233,572.73716 227.69765,572.1271 C 230.57712,567.32737 232.8999,562.21702 235.42765,557.22654 C 236.20774,554.35998 236.58814,551.39423 237.57686,548.5712 C 237.92901,547.60326 238.16281,546.63199 238.54466,545.67142 C 239.12642,544.46322 239.69586,543.24954 240.16849,541.99789 C 242.09031,539.51898 243.76326,536.87765 245.2798,534.12063 C 246.53845,531.21115 247.73399,528.2916 249.12626,525.44263 C 253.64953,516.8772 258.2521,508.35497 262.7084,499.75025 C 265.25641,495.53181 268.5748,491.85457 271.45036,487.86125 C 274.42132,482.71069 278.84898,478.44695 281.89978,473.38957 C 285.58565,465.92403 287.7175,457.82558 290.83317,450.1207 C 293.81922,441.9929 297.27863,434.01284 300.35828,425.90908 C 299.43413,423.81307 297.836,422.08298 297.18462,419.9116 C 297.55064,417.58487 298.49492,415.41512 298.75423,413.63354 C 299.56552,408.05972 299.94591,402.21712 300.13125,396.52851 C 300.2971,390.42355 301.70862,384.55302 301.87385,378.41862 C 301.49846,374.53811 302.87909,370.9159 303.38942,367.13379 C 303.48516,365.06919 304.3379,363.75621 306.09849,365.25131 C 306.17639,365.49676 306.12941,368.00664 305.99408,370.82882 C 305.57272,379.61586 305.38435,387.62896 305.58977,388.02794 C 306.57044,388.77064 307.63784,390.27418 308.84548,389.87767 C 328.75319,383.34122 342.68148,378.94272 363.29198,372.17063 C 368.33965,370.51209 361.90549,365.58138 364.97642,359.86405 C 368.91645,352.52866 371.72026,351.64969 376.19472,349.04488 C 380.25739,346.67979 394.05691,351.72965 391.07871,354.9907 C 389.26887,356.97242 385.89213,354.87054 385.22759,355.87567 C 383.41159,358.6224 385.17516,359.56883 389.94043,363.52249 C 394.84394,361.85962 402.39486,359.98014 408.97573,357.75309 C 405.66254,341.15963 405.57973,340.57764 403.21505,327.88934 C 403.74856,326.19942 405.66332,324.36208 405.76734,322.97201 C 405.94717,320.56908 398.6678,275.71386 398.42728,274.34258 C 398.74086,271.71509 399.94051,269.3884 399.76806,268.18675 C 399.59737,266.99727 397.69842,255.68748 396.91047,250.09098 C 403.43198,253.45256 414.97533,259.38314 421.60033,267.1128 C 424.96927,273.92061 424.44807,281.97534 425.17621,289.35606 C 426.95507,297.96402 426.34679,306.38815 425.72422,315.01249 C 425.33619,323.80695 422.5415,332.3993 422.78085,341.2102 C 422.94668,346.506 422.69373,350.23488 422.03972,352.13581 C 421.67102,353.20739 421.60412,353.95607 421.6054,356.9952 C 421.82234,362.17634 419.91383,367.07394 418.43277,371.95463 C 418.06645,374.09773 415.68929,374.16277 415.78204,376.22215 C 416.4437,379.38477 417.79742,382.47844 418.28502,385.68455 C 417.41953,386.42517 416.37453,386.94987 415.46885,387.63716 C 417.6848,397.87965 418.49205,408.41738 419.99956,418.79759 L 420.47671,431.74192 C 418.16789,434.22785 416.14411,436.92545 414.44402,439.85479 C 414.21967,443.96365 414.52997,448.14627 414.56421,452.27984 C 414.26142,468.34551 418.74196,484.24182 419.43727,500.21518 C 419.32493,503.18193 421.02754,505.73008 422.21095,508.35594 C 424.35044,513.18539 424.55654,513.48359 425.88589,513.67351 C 432.74718,516.38544 439.23634,521.07895 444.48633,526.31068 C 464.52349,546.53408 484.02035,567.90003 501.38782,590.55301 C 503.13378,592.91551 503.59434,593.29397 505.39325,593.84451 C 506.28636,594.11785 507.58676,594.6005 508.28306,594.9171 C 510.9517,596.67669 511.68414,600.54718 512.67247,603.51209 C 513.97794,608.94984 516.41861,614.31475 516.78415,619.9478 C 516.66128,620.43735 511.06779,625.70673 508.56733,627.68851 L 507.51947,628.519 C 505.00102,628.49535 502.89224,628.02491 501.49012,630.37323 C 495.6581,637.75168 486.38516,641.96266 477.37578,644.25973 C 471.44507,645.46181 465.64105,644.10462 459.74385,643.85878 z M 322.32096,361.14491 C 320.93614,361.5675 320.51112,361.3314 319.28157,359.4565 C 317.36282,357.50909 318.28663,351.88898 315.93072,350.86411 C 314.42607,351.67697 310.14392,353.76182 307.81259,355.12097 C 306.6249,355.81867 306.38575,355.84628 305.93693,355.33748 C 306.16066,350.31379 307.24136,346.14563 305.29522,340.77718 C 304.32311,338.30334 304.01775,338.31711 303.2774,337.65051 C 300.47706,335.12912 295.06732,316.56899 292.92697,306.46035 C 293.03913,304.93862 295.83175,301.2525 296.72903,298.38723 C 296.34998,297.42077 294.08449,297.50629 294.91143,296.48071 C 295.694,295.51017 299.06692,293.04887 299.16747,292.33509 C 299.2705,291.60371 299.16939,286.4179 299.38398,283.29378 C 299.5734,281.9635 302.68995,278.1734 304.03895,275.44457 C 302.75741,273.63575 300.98727,272.37444 300.35613,270.26684 C 301.00093,265.01474 302.069,259.79081 303.15481,254.60947 C 303.6539,252.52295 303.98805,252.66689 303.57363,251.23339 C 303.18297,249.88208 309.35076,242.27237 310.5025,241.25714 C 311.51697,240.36291 324.89065,240.06456 332.12811,239.75722 C 332.7601,238.92356 331.78167,233.90513 330.48954,230.15953 C 329.40032,226.36622 329.08287,222.50448 327.70764,218.79903 C 326.23849,216.45468 327.89056,204.86967 327.73125,198.03422 C 326.32909,193.84494 333.69616,184.0626 336.51532,177.26923 C 338.99074,173.82656 342.03444,170.2004 345.5273,167.75886 C 346.73175,167.75886 351.86258,170.68379 352.23575,171.28759 C 358.17328,168.93085 364.01786,165.59126 370.55737,165.69483 C 375.15311,168.04836 378.66676,176.79998 379.40308,177.52863 C 381.39832,179.50309 383.07927,174.81449 385.32797,174.45955 C 387.18438,174.95735 388.18748,182.74584 389.47583,187.05507 C 390.24221,188.99225 390.23264,191.05246 390.97685,192.96393 C 392.19916,198.37429 390.24019,205.53331 388.89802,210.87117 C 388.4973,214.05967 387.38808,216.95858 386.32173,219.9646 C 383.49887,224.23417 384.77652,230.16543 382.20414,234.38153 C 381.72502,235.0655 381.33302,235.84992 381.33302,236.12469 C 381.99421,238.37157 382.9367,240.63602 384.26366,242.58535 C 387.82315,251.56643 387.98713,261.66703 390.75296,270.9527 C 391.77847,272.20329 392.81966,273.39155 393.54819,274.82981 C 395.31553,284.31073 396.90209,293.52413 398.65815,303.03298 C 377.35365,315.70558 353.91733,328.99513 332.41168,341.38707 L 329.26884,343.18679 L 329.72453,343.9847 C 330.92154,346.49211 331.14409,349.31154 331.76524,351.99526 C 332.19904,353.68783 332.57234,357.45023 332.66786,361.09245 C 332.72591,363.30576 332.72018,363.3346 332.11905,363.85295 C 328.44833,365.26105 326.00899,360.09476 322.32096,361.14491 z M 363.01879,235.95191 C 365.05641,235.34296 366.68048,234.6352 368.02834,233.28901 C 369.36324,231.95578 369.25878,230.12163 369.89552,227.55135 C 370.12315,226.6325 370.62484,226.51283 373.12048,224.16554 C 374.65594,222.72135 375.70275,221.84281 376.30983,221.02278 C 376.64298,220.57275 376.26853,220.39762 375.81912,220.39762 C 375.67358,220.39762 374.73811,221.4612 373.52207,222.65201 C 371.77762,224.36025 371.00363,224.72782 370.52175,224.72782 C 370.18585,224.72782 369.78471,224.57564 369.63035,224.38964 C 369.29839,223.98965 368.5416,223.45659 367.58999,222.91562 C 367.58388,222.91215 367.57777,222.90869 367.57166,222.90522 C 366.39892,222.24016 364.93407,221.56438 363.60428,221.11033 C 362.51571,220.73864 361.25022,220.54613 359.86149,220.53342 C 358.49644,220.52092 357.01231,220.68213 355.46007,221.01764 C 351.22769,221.93245 351.37488,221.9184 349.6936,221.56785 C 347.95805,221.20597 346.48979,220.46089 344.03609,218.6969 C 341.65985,216.9886 340.08306,217.25958 335.57909,216.78647 C 333.35794,216.55315 331.61114,215.56396 330.52063,215.32445 C 329.72019,215.14864 329.04881,215.61107 329.23819,216.20775 C 329.83696,216.90707 330.87544,216.7785 331.48834,217.46011 C 331.55394,217.72152 331.63542,219.42496 331.45115,220.48166 C 330.78918,224.2777 331.07503,227.71302 332.3903,229.37737 C 333.69834,231.03257 336.63104,232.55631 339.54659,232.55844 C 341.12631,232.55959 341.57346,232.6501 342.70414,232.11519 C 344.67479,231.18291 345.80167,229.22457 347.08082,225.59386 C 347.35352,224.81983 347.4271,224.10651 348.05225,223.55876 C 348.64264,223.04146 349.41683,223.30017 350.49061,223.59843 C 351.50019,223.87885 351.73796,224.28733 352.05749,227.6632 C 352.45859,231.90074 353.46707,234.00143 355.63678,235.11898 C 357.98358,236.32775 360.54281,236.69185 363.01879,235.95191 z M 358.65637,235.4552 C 353.83984,234.08719 353.48278,231.80774 352.9537,227.71359 C 352.60649,225.0824 353.47069,223.18726 354.19895,222.8054 C 355.03463,222.36722 358.08828,221.67883 361.47558,222.29942 C 364.9493,222.93585 365.80045,223.12726 368.24774,225.25647 C 368.71978,225.80242 368.83545,227.21456 368.69967,228.73564 C 368.51963,230.75252 367.51854,232.44579 365.80876,233.87259 C 363.74449,235.81163 361.29596,235.85035 358.65637,235.4552 z M 336.90998,231.30249 C 334.4097,230.59675 333.47636,229.80439 332.7078,228.35383 C 332.08809,227.18419 331.63978,226.90079 331.76549,223.989 C 331.95228,219.66274 333.18663,218.41149 334.64241,218.12243 C 335.19621,218.01247 337.23143,217.45988 339.61155,218.30319 C 342.37879,219.28366 344.37698,219.85419 346.16771,222.12228 C 346.84482,222.9799 345.75733,226.88795 345.36461,228.25681 C 344.9888,229.56676 343.47912,230.78731 341.71943,231.36006 C 340.38367,231.99133 338.26668,231.68249 336.90998,231.30249 z "
         style="fill:#000000;stroke:#ffffff;stroke-width:1;stroke-miterlimit:4;stroke-dasharray:none;stroke-opacity:1"
         id="path2095" />
      <path
         d="M 400,358.79076 C 405.01946,373.57655 390.52475,387.38411 397.49999,403.43361 C 411.54355,435.74677 389.54389,452.28894 391.07143,478.07648 C 391.87244,491.5991 401.96232,516.53586 418.50271,525.24906"
         style="fill:none;fill-rule:evenodd;stroke:#ffffff;stroke-width:1;stroke-linecap:butt;stroke-linejoin:miter;stroke-opacity:1"
         id="path2015" />
      <path
         d="M 418.84375,523.3125 C 417.54815,522.51233 415.56097,525.36784 417.0625,526.3125 C 418.52242,527.23098 422.10602,529.19131 423.90625,530.3125 C 425.81072,531.49861 427.56835,528.41485 425.65625,527.28125 C 423.78445,526.17155 420.1682,524.13049 418.84375,523.3125 z "
         style="fill:#ffffff;fill-opacity:1;fill-rule:evenodd;stroke:none;stroke-width:3.5;stroke-linecap:butt;stroke-linejoin:miter;stroke-miterlimit:4;stroke-dasharray:none;stroke-opacity:1"
         id="path2907" />
    </g>
  </g>
  <path
     style="color:#000000;fill:url(#radialGradient2373);fill-opacity:1;fill-rule:nonzero;stroke:none;stroke-width:10;stroke-linecap:butt;stroke-linejoin:miter;stroke-miterlimit:4;stroke-dashoffset:0;stroke-opacity:1;marker:none;marker-start:none;marker-mid:none;marker-end:none;visibility:visible;display:inline;overflow:visible"
     d="M -77.07859,103.28453 L 75.130302,103.28453 L 75.130302,179.88639 L -77.07859,179.88639 L -77.07859,103.28453 z "
     id="rect2371" />
  <path
     style="color:#000000;fill:url(#radialGradient2361);fill-opacity:1;fill-rule:nonzero;stroke:none;stroke-width:10;stroke-linecap:butt;stroke-linejoin:miter;stroke-miterlimit:4;stroke-dashoffset:0;stroke-opacity:1;marker:none;marker-start:none;marker-mid:none;marker-end:none;visibility:visible;display:inline;overflow:visible"
     d="M -147.23477,124.18631 L -48.746666,124.18631 L -48.746666,169.94846 L -147.23477,169.94846 L -147.23477,124.18631 z "
     id="rect2353" />
  <path
     style="color:#000000;fill:url(#radialGradient2365);fill-opacity:1;fill-rule:nonzero;stroke:none;stroke-width:10;stroke-linecap:butt;stroke-linejoin:miter;stroke-miterlimit:4;stroke-dashoffset:0;stroke-opacity:1;marker:none;marker-start:none;marker-mid:none;marker-end:none;visibility:visible;display:inline;overflow:visible"
     d="M -125.84592,118.21732 L -27.357811,118.21732 L -27.357811,163.97947 L -125.84592,163.97947 L -125.84592,118.21732 z "
     id="rect2363" />
  <path
     style="color:#000000;fill:url(#radialGradient2369);fill-opacity:1;fill-rule:nonzero;stroke:none;stroke-width:10;stroke-linecap:butt;stroke-linejoin:miter;stroke-miterlimit:4;stroke-dashoffset:0;stroke-opacity:1;marker:none;marker-start:none;marker-mid:none;marker-end:none;visibility:visible;display:inline;overflow:visible"
     d="M -86.05275,113.2225 L 12.435356,113.2225 L 12.435356,158.98465 L -86.05275,158.98465 L -86.05275,113.2225 z "
     id="rect2367" />
  <path
     style="color:#000000;fill:url(#radialGradient2377);fill-opacity:1;fill-rule:nonzero;stroke:none;stroke-width:10;stroke-linecap:butt;stroke-linejoin:miter;stroke-miterlimit:4;stroke-dashoffset:0;stroke-opacity:1;marker:none;marker-start:none;marker-mid:none;marker-end:none;visibility:visible;display:inline;overflow:visible"
     d="M 56.20787,151.04669 L 154.69598,151.04669 L 154.69598,196.80884 L 56.20787,196.80884 L 56.20787,151.04669 z "
     id="rect2375" />
  <path
     style="color:#000000;fill:url(#radialGradient2381);fill-opacity:1;fill-rule:nonzero;stroke:none;stroke-width:10;stroke-linecap:butt;stroke-linejoin:miter;stroke-miterlimit:4;stroke-dashoffset:0;stroke-opacity:1;marker:none;marker-start:none;marker-mid:none;marker-end:none;visibility:visible;display:inline;overflow:visible"
     d="M 34.321621,145.07771 L 132.80973,145.07771 L 132.80973,190.83986 L 34.321621,190.83986 L 34.321621,145.07771 z "
     id="rect2379" />
  <path
     style="color:#000000;fill:url(#radialGradient2385);fill-opacity:1;fill-rule:nonzero;stroke:none;stroke-width:10;stroke-linecap:butt;stroke-linejoin:miter;stroke-miterlimit:4;stroke-dashoffset:0;stroke-opacity:1;marker:none;marker-start:none;marker-mid:none;marker-end:none;visibility:visible;display:inline;overflow:visible"
     d="M 11.440545,132.14494 L 109.92865,132.14494 L 109.92865,177.90709 L 11.440545,177.90709 L 11.440545,132.14494 z "
     id="rect2383" />
</svg>
