<?xml version="1.0" encoding="UTF-8" standalone="no"?>
<!-- Created with Inkscape (http://www.inkscape.org/) -->
<svg
   xmlns:dc="http://purl.org/dc/elements/1.1/"
   xmlns:cc="http://web.resource.org/cc/"
   xmlns:rdf="http://www.w3.org/1999/02/22-rdf-syntax-ns#"
   xmlns:svg="http://www.w3.org/2000/svg"
   xmlns="http://www.w3.org/2000/svg"
   xmlns:xlink="http://www.w3.org/1999/xlink"
   xmlns:sodipodi="http://inkscape.sourceforge.net/DTD/sodipodi-0.dtd"
   xmlns:inkscape="http://www.inkscape.org/namespaces/inkscape"
   version="1.0"
   width="744.09448"
   height="1052.3622"
   id="svg3972"
   sodipodi:version="0.32"
   inkscape:version="0.42+0.43pre1"
   sodipodi:docname="esc.svg"
   sodipodi:docbase="c:\users\proj\keyboardhero\data\songs\tutorial">
  <metadata
     id="metadata2301">
    <rdf:RDF>
      <cc:Work
         rdf:about="">
        <dc:format>image/svg+xml</dc:format>
        <dc:type
           rdf:resource="http://purl.org/dc/dcmitype/StillImage" />
      </cc:Work>
    </rdf:RDF>
  </metadata>
  <sodipodi:namedview
     inkscape:window-height="538"
     inkscape:window-width="719"
     inkscape:pageshadow="2"
     inkscape:pageopacity="0.0"
     borderopacity="1.0"
     bordercolor="#666666"
     pagecolor="#ffffff"
     id="base"
     inkscape:zoom="1.0051974"
     inkscape:cx="7.3784205"
     inkscape:cy="1027.7351"
     inkscape:window-x="176"
     inkscape:window-y="176"
     inkscape:current-layer="svg3972" />
  <defs
     id="defs3974">
    <linearGradient
       id="linearGradient3213">
      <stop
         style="stop-color:#bba300;stop-opacity:1;"
         offset="0"
         id="stop3215" />
      <stop
         style="stop-color:#675a00;stop-opacity:1;"
         offset="1"
         id="stop3217" />
    </linearGradient>
    <linearGradient
       id="linearGradient3112">
      <stop
         style="stop-color:#000000;stop-opacity:0.54385966;"
         offset="0"
         id="stop3114" />
      <stop
         style="stop-color:#000000;stop-opacity:0;"
         offset="1"
         id="stop3116" />
    </linearGradient>
    <radialGradient
       inkscape:collect="always"
       xlink:href="#linearGradient3112"
       id="radialGradient3118"
       cx="-154.20419"
       cy="122.36085"
       fx="-154.20419"
       fy="122.36085"
       r="253.82281"
       gradientTransform="matrix(0.521835,0.000000,0.000000,0.269392,80.46916,65.35777)"
       gradientUnits="userSpaceOnUse" />
    <linearGradient
       inkscape:collect="always"
       xlink:href="#linearGradient3213"
       id="linearGradient3219"
       x1="-30.932739"
       y1="-9.999609"
       x2="47.638783"
       y2="4.0694041"
       gradientUnits="userSpaceOnUse" />
  </defs>
  <path
     style="color:#000000;fill:url(#radialGradient3118);fill-opacity:1;fill-rule:nonzero;stroke:none;stroke-width:10;stroke-linecap:butt;stroke-linejoin:miter;stroke-miterlimit:4;stroke-dashoffset:0;stroke-opacity:0.11842107;marker:none;marker-start:none;marker-mid:none;marker-end:none;visibility:visible;display:inline;overflow:visible"
     d="M -132.45361,29.942915 L 132.45364,29.942915 L 132.45364,166.69856 L -132.45361,166.69856 L -132.45361,29.942915 z "
     id="rect3110" />
  <path
     d="M -14.938227,64.163037 C -71.096844,47.245613 -95.909305,44.531615 -97.99301,41.530189 C -99.55206,39.284502 -99.62145,38.97706 -99.60825,34.374133 C -99.59668,30.340222 -98.75657,25.359775 -94.398927,3.4917239 C -91.541383,-10.848346 -88.535664,-25.108505 -87.719554,-28.197516 C -85.160435,-37.88389 -83.498647,-40.859066 -71.769159,-56.754287 C -68.378842,-61.348678 -61.923923,-70.233699 -57.424892,-76.498778 C -43.563045,-95.801946 -38.99985,-101.79202 -36.755954,-103.63072 C -30.651909,-108.63252 -26.273179,-108.63844 -6.216548,-103.67202 C 22.650789,-96.52389 34.444184,-94.296929 62.578504,-90.681361 C 71.317968,-89.558245 79.861257,-88.314393 81.563592,-87.917245 C 87.239956,-86.592972 90.416004,-84.713676 91.877172,-81.814603 C 92.634216,-80.312563 71.876017,47.049806 69.309375,56.821861 C 67.837813,62.424583 39.373811,80.524188 -14.938227,64.163037 z "
     style="fill:#ffff80;fill-opacity:1"
     id="path3964"
     sodipodi:nodetypes="csssssssssssss" />
  <path
     d="M 52.990483,91.223985 C 49.927556,90.878239 44.118119,89.752833 40.080624,88.723087 C 28.398056,85.743497 -71.314453,55.922273 -79.712459,52.827086 C -88.452317,49.605909 -94.115392,46.342575 -95.46833,44.518974 C -96.071691,43.705713 -95.152792,38.697938 -93.02421,27.997017 C -91.534078,20.505739 -89.840264,12.212207 -89.260171,9.5669519 C -88.680082,6.9216963 -87.394245,0.77052798 -86.402758,-4.1023111 C -85.411266,-8.9751503 -84.401183,-13.169336 -84.158128,-13.422718 C -83.203351,-14.418084 -76.419361,-13.998989 -71.778383,-12.657933 C -69.272352,-11.933791 -64.943752,-10.757774 -62.159272,-10.044568 C -59.374793,-9.3313561 -53.030442,-7.3536618 -48.060713,-5.649692 C -26.916966,1.5998624 2.8071202,9.0477781 23.906458,12.383007 C 31.562906,13.593279 33.31002,13.705159 39.732452,13.396431 C 45.094848,13.138664 47.504026,12.805788 49.098429,12.102327 C 50.279033,11.581437 52.833256,10.879616 54.774484,10.54273 C 59.020744,9.8058197 63.744826,7.6915442 66.232389,5.4147158 C 71.148297,0.91526522 74.970066,-10.663821 85.387411,-52.620631 C 89.339159,-68.53665 90.480831,-74.320986 90.480831,-78.426681 C 90.480831,-80.304954 90.782846,-83.338915 91.025729,-83.068228 C 93.95894,-52.467049 67.763144,52.366027 52.990483,91.223985 z "
     style="fill:url(#linearGradient3219);fill-opacity:1.0"
     id="path3962" />
  <path
     d="M 55.987079,91.62534 C 54.316391,91.392061 51.967617,91.062111 50.767582,90.892116 L 48.585695,90.583038 L 49.009265,74.460396 C 49.065901,66.474574 49.432683,54.928654 49.824337,48.802799 C 50.215987,42.676944 50.670758,34.405253 50.834936,30.42126 L 51.133448,23.177634 L 54.508141,21.47817 C 58.22089,19.608458 60.856395,16.894512 65.76968,9.8814715 C 72.56059,0.18836419 74.196861,-3.3162323 77.853349,-15.999633 C 80.894547,-26.54876 90.103676,-64.969651 90.814149,-69.610766 C 91.153825,-71.829677 90.74843,-83.220686 91.049032,-83.118087 C 93.372119,-82.325176 95.329425,-59.373227 99.332474,-26.329955 C 100.10548,-19.949164 99.739823,-16.036074 91.862024,24.392321 C 84.271513,63.346384 82.672837,70.415438 79.190815,78.201658 C 76.849032,83.438165 75.324834,85.295003 72.309607,87.711253 C 69.519088,89.947433 68.464008,90.449723 64.727059,91.321067 C 62.339515,91.877766 59.582845,92.145177 59.384787,92.111222 C 59.186735,92.077266 57.657767,91.858619 55.987079,91.62534 z M 30.994224,-64.228321 C 25.693755,-64.81576 20.627156,-67.78562 19.885725,-70.73972 C 19.135328,-73.729532 21.617631,-77.936461 25.14184,-79.647625 C 27.998008,-81.034422 33.197633,-81.135169 37.393403,-79.885009 C 41.968526,-78.521819 45.45596,-74.444875 42.005575,-74.493204 C 41.000155,-74.507288 40.329586,-74.963705 39.592059,-76.135945 C 38.148944,-78.429668 36.13611,-79.283258 32.170454,-79.283258 C 29.546072,-79.283258 28.477652,-79.049863 27.392181,-78.239437 C 25.113135,-76.537882 24.032762,-74.700627 23.78305,-72.101822 C 23.576715,-69.954421 23.714906,-69.487504 24.910724,-68.291687 C 25.66028,-67.54213 27.075069,-66.664331 28.0547,-66.341027 C 30.690989,-65.470974 35.356202,-65.947844 37.021255,-67.257577 C 38.441669,-68.374872 40.335758,-68.218668 40.758867,-66.94934 C 41.200313,-65.624996 34.710269,-63.816476 30.994224,-64.228321 z M 1.6306219,-70.74413 C -3.7915342,-72.086036 -6.7228166,-74.040781 -6.7228166,-76.314678 C -6.7228166,-78.199305 -4.0612035,-77.591879 -3.0263036,-75.471077 C -2.0823043,-73.536548 1.5717682,-71.942357 5.0619259,-71.942357 C 8.6642577,-71.942357 9.9840604,-72.564319 9.9840604,-74.261925 C 9.9840604,-75.717033 9.2975647,-76.172584 2.9086272,-78.957134 C -0.10645787,-80.271226 -1.6110691,-81.234823 -2.1516125,-82.197869 C -2.881946,-83.499056 -2.8508054,-83.638528 -1.5364501,-84.952878 C -0.34328039,-86.146048 0.34594917,-86.36546 3.4522639,-86.540978 C 9.3841114,-86.876159 16.565557,-84.263132 16.565557,-81.7696 C 16.565557,-80.495018 13.744439,-80.902513 12.821997,-82.310336 C 11.702935,-84.01824 9.5898895,-85.023827 6.3101473,-85.4093 C 2.8483558,-85.816163 1.250176,-85.090507 1.473714,-83.213302 C 1.6104066,-82.065398 2.3367001,-81.584519 7.1108219,-79.480951 C 13.719617,-76.568993 14.129563,-76.258518 13.9335,-74.313746 C 13.675769,-71.757316 11.633586,-70.692399 6.7831342,-70.585111 C 4.5061489,-70.534747 2.1875178,-70.606308 1.6306219,-70.74413 z M -27.226711,-77.704022 C -33.352566,-79.147937 -38.639412,-80.499913 -38.97526,-80.708415 C -39.397423,-80.970505 -37.772274,-83.777944 -33.709799,-89.804494 C -30.477945,-94.598836 -27.583221,-98.796741 -27.277075,-99.133172 C -26.845749,-99.607159 -24.221362,-99.204645 -15.61936,-97.345172 C -9.2644338,-95.971444 -4.4303799,-94.681784 -4.3126875,-94.328703 C -3.9995956,-93.389433 -5.4381235,-93.555537 -14.316852,-95.483866 C -18.804116,-96.458433 -22.974983,-97.251714 -23.585442,-97.246711 C -24.353235,-97.240419 -25.202551,-96.461946 -26.34074,-94.721246 C -28.281021,-91.753858 -28.394466,-90.790684 -26.847009,-90.422785 C -26.220501,-90.273837 -22.304394,-89.399621 -18.144544,-88.480085 C -11.190686,-86.942935 -9.1783123,-86.117109 -10.878141,-85.49814 C -11.237967,-85.367118 -15.40533,-86.129807 -20.138945,-87.193012 C -24.87256,-88.256218 -29.021804,-89.132726 -29.359491,-89.140806 C -30.114171,-89.15887 -34.061343,-83.443564 -34.061343,-82.332759 C -34.061343,-81.275781 -33.797121,-81.189416 -23.176559,-78.774918 C -16.499281,-77.256896 -14.063717,-76.506737 -14.063717,-75.968147 C -14.063717,-74.758959 -15.581218,-74.959082 -27.226711,-77.704022 z "
     style="fill:#070707"
     id="path3960" />
</svg>
